<?xml version="1.0" encoding="UTF-8" standalone="no"?>
<!-- Created with Inkscape (http://www.inkscape.org/) -->

<svg
   width="197.537mm"
   height="232.66701mm"
   viewBox="0 0 197.537 232.66701"
   version="1.1"
   id="svg1"
   xml:space="preserve"
   inkscape:version="1.3.2 (091e20e, 2023-11-25)"
   sodipodi:docname="inomeado.svg"
   xmlns:inkscape="http://www.inkscape.org/namespaces/inkscape"
   xmlns:sodipodi="http://sodipodi.sourceforge.net/DTD/sodipodi-0.dtd"
   xmlns:xlink="http://www.w3.org/1999/xlink"
   xmlns="http://www.w3.org/2000/svg"
   xmlns:svg="http://www.w3.org/2000/svg"><sodipodi:namedview
     id="namedview1"
     pagecolor="#ffffff"
     bordercolor="#000000"
     borderopacity="0.25"
     inkscape:showpageshadow="2"
     inkscape:pageopacity="0.0"
     inkscape:pagecheckerboard="0"
     inkscape:deskcolor="#d1d1d1"
     inkscape:document-units="mm"
     inkscape:zoom="0.38929561"
     inkscape:cx="279.99288"
     inkscape:cy="590.81066"
     inkscape:window-width="1600"
     inkscape:window-height="831"
     inkscape:window-x="0"
     inkscape:window-y="32"
     inkscape:window-maximized="1"
     inkscape:current-layer="layer1" /><defs
     id="defs1"><linearGradient
       id="linearGradient8"
       inkscape:collect="always"><stop
         style="stop-color:#000000;stop-opacity:1;"
         offset="0"
         id="stop9" /><stop
         style="stop-color:#000000;stop-opacity:0;"
         offset="1"
         id="stop10" /></linearGradient><linearGradient
       inkscape:collect="always"
       xlink:href="#linearGradient8"
       id="linearGradient10"
       x1="5.9986396"
       y1="137.9968"
       x2="203.53534"
       y2="137.9968"
       gradientUnits="userSpaceOnUse" /><linearGradient
       inkscape:collect="always"
       xlink:href="#linearGradient8"
       id="linearGradient11"
       gradientUnits="userSpaceOnUse"
       x1="5.9986396"
       y1="137.9968"
       x2="203.53534"
       y2="137.9968" /><linearGradient
       inkscape:collect="always"
       xlink:href="#linearGradient8"
       id="linearGradient12"
       gradientUnits="userSpaceOnUse"
       x1="5.9986396"
       y1="137.9968"
       x2="203.53534"
       y2="137.9968" /><linearGradient
       inkscape:collect="always"
       xlink:href="#linearGradient8"
       id="linearGradient13"
       gradientUnits="userSpaceOnUse"
       x1="5.9986396"
       y1="137.9968"
       x2="203.53534"
       y2="137.9968" /><linearGradient
       inkscape:collect="always"
       xlink:href="#linearGradient8"
       id="linearGradient14"
       gradientUnits="userSpaceOnUse"
       x1="5.9986396"
       y1="137.9968"
       x2="203.53534"
       y2="137.9968" /><linearGradient
       inkscape:collect="always"
       xlink:href="#linearGradient8"
       id="linearGradient15"
       gradientUnits="userSpaceOnUse"
       x1="5.9986396"
       y1="137.9968"
       x2="203.53534"
       y2="137.9968" /><linearGradient
       inkscape:collect="always"
       xlink:href="#linearGradient8"
       id="linearGradient16"
       gradientUnits="userSpaceOnUse"
       x1="5.9986396"
       y1="137.9968"
       x2="203.53534"
       y2="137.9968" /><linearGradient
       inkscape:collect="always"
       xlink:href="#linearGradient8"
       id="linearGradient17"
       gradientUnits="userSpaceOnUse"
       x1="5.9986396"
       y1="137.9968"
       x2="203.53534"
       y2="137.9968" /><linearGradient
       inkscape:collect="always"
       xlink:href="#linearGradient8"
       id="linearGradient18"
       gradientUnits="userSpaceOnUse"
       x1="5.9986396"
       y1="137.9968"
       x2="203.53534"
       y2="137.9968" /><linearGradient
       inkscape:collect="always"
       xlink:href="#linearGradient8"
       id="linearGradient19"
       gradientUnits="userSpaceOnUse"
       x1="5.9986396"
       y1="137.9968"
       x2="203.53534"
       y2="137.9968" /><linearGradient
       inkscape:collect="always"
       xlink:href="#linearGradient8"
       id="linearGradient20"
       gradientUnits="userSpaceOnUse"
       x1="5.9986396"
       y1="137.9968"
       x2="203.53534"
       y2="137.9968" /><linearGradient
       inkscape:collect="always"
       xlink:href="#linearGradient8"
       id="linearGradient21"
       gradientUnits="userSpaceOnUse"
       x1="5.9986396"
       y1="137.9968"
       x2="203.53534"
       y2="137.9968" /><linearGradient
       inkscape:collect="always"
       xlink:href="#linearGradient8"
       id="linearGradient22"
       gradientUnits="userSpaceOnUse"
       x1="5.9986396"
       y1="137.9968"
       x2="203.53534"
       y2="137.9968" /><linearGradient
       inkscape:collect="always"
       xlink:href="#linearGradient8"
       id="linearGradient23"
       gradientUnits="userSpaceOnUse"
       x1="5.9986396"
       y1="137.9968"
       x2="203.53534"
       y2="137.9968" /><linearGradient
       inkscape:collect="always"
       xlink:href="#linearGradient8"
       id="linearGradient24"
       gradientUnits="userSpaceOnUse"
       x1="5.9986396"
       y1="137.9968"
       x2="203.53534"
       y2="137.9968" /></defs><g
     inkscape:label="Camada 1"
     inkscape:groupmode="layer"
     id="layer1"><g
       id="g3"
       style="fill:url(#linearGradient10)"
       transform="translate(-6.2381527,-20.780879)"><g
         style="fill:url(#linearGradient22);fill-opacity:1"
         id="g1"
         transform="matrix(3.5276014,0,0,3.5276014,-1.0663431,42.670835)"><g
           id="g8"
           style="fill:url(#linearGradient21);fill-opacity:1">
	<path
   d="M 57.988,1.42 C 58.059,0.919 57.817,0.412 57.361,0.158 56.837,-0.135 56.181,-0.012 55.798,0.449 L 54.496,2.01 c -0.451,0.541 -1.05,0.962 -1.685,1.408 -1.58,1.109 -3.519,2.471 -3.78,6.256 h -0.03 c 0,2.65 -1.423,5.325 -4.602,5.325 h -3.85 c -1.025,-2.583 -3.775,-3.573 -6.128,-3.359 -1.614,0.145 -3.314,0.889 -4.369,2.247 -1.046,-1.434 -2.802,-2.221 -4.466,-2.37 -2.398,-0.221 -5.189,0.807 -6.174,3.482 h -3.809 c -3.179,0 -4.602,-2.674 -4.602,-5.325 h -0.03 C 10.709,5.889 8.77,4.527 7.191,3.418 6.557,2.972 5.957,2.551 5.506,2.01 L 4.205,0.449 C 3.822,-0.011 3.163,-0.133 2.642,0.158 2.186,0.412 1.944,0.919 2.015,1.42 L 2.012,1.904 c -0.006,1.351 0.108,2.659 0.34,3.89 0.328,1.74 0.649,4.363 0.649,5.294 v 2.911 c 0,6.065 4.935,11 11,11 h 1.925 c -0.43,0.682 -0.823,1.24 -1.111,1.624 -0.755,1.008 -1.239,1.994 -1.481,3.013 -0.963,4.062 1.717,6.813 3.667,7.964 v 6.022 l 0.559,0.274 c 0.042,0.021 4.221,2.13 4.442,7.146 0.23,5.224 3.238,7.891 4.157,8.585 0.298,0.225 0.676,0.301 1.037,0.218 0.317,-0.075 0.589,-0.27 0.763,-0.542 l 2.033,-2.647 2.051,2.761 c 0.174,0.278 0.45,0.476 0.772,0.551 0.094,0.022 0.189,0.033 0.284,0.033 0.269,0 0.533,-0.087 0.751,-0.253 0.917,-0.692 3.925,-3.357 4.155,-8.583 0.22,-4.978 4.272,-7.062 4.442,-7.146 l 0.559,-0.274 v -6.022 c 1.95,-1.15 4.63,-3.902 3.667,-7.963 v 0 C 46.431,28.739 45.946,27.754 45.192,26.747 44.888,26.341 44.465,25.736 44.007,25 h 1.994 c 6.065,0 11,-4.935 11,-11 v -2.911 c 0,-0.932 0.322,-3.554 0.649,-5.294 0.232,-1.23 0.346,-2.539 0.34,-3.891 z m -32.58,12.089 c 1.767,0.158 3.563,1.252 3.593,3.342 l 10e-4,0.145 c 0,0.001 -10e-4,0.002 -10e-4,0.003 v 2 c 0,0.552 0.448,1 1,1 0.552,0 1,-0.448 1,-1 V 17.31 l 0.005,-0.34 c 0.03,-2.087 1.827,-3.18 3.594,-3.338 1.771,-0.163 3.724,0.582 4.224,2.554 l 0.01,0.044 0.048,0.144 c 0.053,0.271 0.097,0.557 0.13,0.859 0.065,0.582 0.164,1.154 0.287,1.714 0.005,0.021 0.008,0.042 0.012,0.063 0.135,0.603 0.3,1.191 0.487,1.76 0.007,0.021 0.015,0.043 0.022,0.064 0.203,0.611 0.43,1.198 0.671,1.759 0.008,0.018 0.015,0.035 0.023,0.053 0.35,0.81 0.727,1.561 1.104,2.239 L 41.679,25 h 0.002 c 0.118,0.211 0.235,0.414 0.352,0.609 L 34.184,29.77 31,26.586 V 24 c 0,-0.552 -0.448,-1 -1,-1 -0.552,0 -1,0.448 -1,1 v 2.586 l -3.184,3.184 -7.9,-4.189 c 0.112,-0.187 0.226,-0.38 0.34,-0.582 v 0 l 0.016,-0.03 c 0.399,-0.704 0.802,-1.496 1.176,-2.351 0.009,-0.02 0.017,-0.039 0.026,-0.059 0.243,-0.56 0.473,-1.146 0.678,-1.757 0.013,-0.037 0.027,-0.075 0.039,-0.113 0.189,-0.572 0.357,-1.162 0.494,-1.768 0.004,-0.017 0.007,-0.033 0.011,-0.05 0.128,-0.572 0.229,-1.156 0.295,-1.751 0,-0.004 0.002,-0.008 0.002,-0.013 0.004,-0.034 0.01,-0.061 0.014,-0.094 0.032,-0.26 0.068,-0.512 0.113,-0.748 l 0.005,-0.025 c 0.422,-2.112 2.452,-2.891 4.283,-2.731 z m 16.59,16.976 c -0.008,-0.269 -0.226,-0.486 -0.497,-0.486 -0.276,0 -0.5,0.224 -0.5,0.5 0,0.276 0.224,0.5 0.5,0.5 0.064,0 0.124,-0.015 0.181,-0.036 -0.325,0.45 -0.718,0.874 -1.202,1.233 -0.155,0.115 -0.32,0.195 -0.486,0.267 -0.019,-0.258 -0.229,-0.464 -0.493,-0.464 -0.276,0 -0.5,0.224 -0.5,0.5 0,0.06 0.015,0.116 0.034,0.169 -0.346,0.009 -0.696,-0.03 -1.043,-0.126 0.001,-0.015 0.009,-0.028 0.009,-0.043 0,-0.276 -0.224,-0.5 -0.5,-0.5 -0.161,0 -0.298,0.081 -0.389,0.199 -0.152,-0.074 -0.303,-0.148 -0.448,-0.232 0.195,-0.068 0.337,-0.249 0.337,-0.467 0,-0.276 -0.224,-0.5 -0.5,-0.5 -0.276,0 -0.5,0.224 -0.5,0.5 0,0.012 0.006,0.022 0.007,0.033 -0.124,-0.091 -0.249,-0.182 -0.36,-0.274 l 1.361,-0.722 c 0.02,0.258 0.23,0.463 0.492,0.463 0.276,0 0.5,-0.224 0.5,-0.5 0,-0.159 -0.079,-0.294 -0.194,-0.386 l 0.407,-0.216 c 0.082,0.059 0.178,0.102 0.287,0.102 0.276,0 0.5,-0.224 0.5,-0.5 0,-0.006 -0.003,-0.011 -0.003,-0.017 l 2.021,-1.072 c -0.006,0.03 -0.018,0.058 -0.018,0.089 0,0.276 0.224,0.5 0.5,0.5 0.276,0 0.5,-0.224 0.5,-0.5 0,-0.203 -0.122,-0.375 -0.295,-0.454 l 0.421,-0.223 c 0.092,0.106 0.223,0.177 0.374,0.177 0.13,0 0.247,-0.053 0.336,-0.134 -0.023,0.353 -0.093,0.746 -0.213,1.159 -0.04,-0.011 -0.08,-0.025 -0.123,-0.025 -0.276,0 -0.5,0.224 -0.5,0.5 0,0.195 0.115,0.36 0.278,0.442 -0.085,0.183 -0.175,0.365 -0.281,0.544 z m -11.997,3.926 -2.685,-3.313 2.685,-2.685 2.685,2.685 z m -6.5,-3.412 c -0.276,0 -0.5,0.224 -0.5,0.5 0,0.219 0.143,0.4 0.34,0.468 -0.145,0.085 -0.297,0.159 -0.449,0.233 -0.091,-0.119 -0.229,-0.201 -0.39,-0.201 -0.276,0 -0.5,0.224 -0.5,0.5 0,0.016 0.007,0.029 0.009,0.044 -0.347,0.096 -0.697,0.135 -1.043,0.125 0.019,-0.053 0.034,-0.109 0.034,-0.169 0,-0.276 -0.224,-0.5 -0.5,-0.5 -0.263,0 -0.473,0.205 -0.493,0.463 -0.166,-0.072 -0.33,-0.151 -0.486,-0.267 -0.484,-0.359 -0.878,-0.784 -1.202,-1.233 0.056,0.022 0.117,0.036 0.181,0.036 0.276,0 0.5,-0.224 0.5,-0.5 0,-0.276 -0.224,-0.5 -0.5,-0.5 -0.271,0 -0.49,0.217 -0.497,0.486 -0.106,-0.18 -0.196,-0.362 -0.281,-0.544 0.163,-0.082 0.278,-0.247 0.278,-0.442 0,-0.276 -0.224,-0.5 -0.5,-0.5 -0.044,0 -0.083,0.014 -0.123,0.025 -0.119,-0.413 -0.189,-0.807 -0.212,-1.159 0.089,0.082 0.205,0.134 0.336,0.134 0.151,0 0.282,-0.071 0.374,-0.177 l 0.421,0.223 c -0.173,0.079 -0.295,0.251 -0.295,0.454 0,0.276 0.224,0.5 0.5,0.5 0.276,0 0.5,-0.224 0.5,-0.5 0,-0.032 -0.012,-0.059 -0.018,-0.089 l 2.021,1.072 c 0,0.006 -0.003,0.011 -0.003,0.017 0,0.276 0.224,0.5 0.5,0.5 0.109,0 0.205,-0.042 0.287,-0.102 l 0.407,0.216 c -0.116,0.092 -0.194,0.227 -0.194,0.386 0,0.276 0.224,0.5 0.5,0.5 0.263,0 0.472,-0.205 0.492,-0.463 l 1.362,0.722 c -0.112,0.093 -0.237,0.184 -0.361,0.276 0.001,-0.012 0.007,-0.023 0.007,-0.035 -0.002,-0.275 -0.226,-0.499 -0.502,-0.499 z m -6.444,-8 h -3.056 c -4.962,0 -9,-4.038 -9,-9 V 11.088 C 5.001,10.024 4.675,7.324 4.317,5.423 4.194,4.772 4.108,4.093 4.06,3.396 4.661,4.085 5.363,4.578 6.042,5.055 7.629,6.17 9.001,7.134 9.001,10.564 h 0.042 c 0.36,3.778 3.008,6.435 6.561,6.435 h 3.386 c -0.06,0.5 -0.142,0.994 -0.251,1.478 -0.049,0.217 -0.121,0.439 -0.18,0.659 -0.076,0.283 -0.146,0.569 -0.235,0.844 -0.324,0.988 -0.745,1.996 -1.267,3.019 z m 24.527,13.216 -0.578,0.27 v 6.059 c -1.372,0.861 -4.777,3.494 -4.999,8.534 -0.155,3.523 -1.777,5.612 -2.783,6.577 l -2.223,-2.992 v -0.665 c 0,-0.552 -0.448,-1 -1,-1 -0.552,0 -1,0.448 -1,1 v 0.665 L 26.792,57.54 C 25.788,56.579 24.156,54.487 24,50.955 23.778,45.914 20.373,43.281 19.001,42.421 l -0.003,-6.056 -0.571,-0.271 c -0.167,-0.079 -4.096,-1.993 -3.146,-5.997 0.042,-0.178 0.097,-0.357 0.162,-0.535 0.45,1.559 1.42,3.151 2.889,4.24 0.85,0.63 1.771,0.885 2.689,0.885 1.858,0 3.692,-1.046 4.895,-2.141 l 3.085,3.807 v 9.646 c 0,0.552 0.448,1 1,1 0.552,0 1,-0.448 1,-1 v -9.646 l 3.086,-3.807 c 1.203,1.095 3.037,2.141 4.895,2.141 0.918,0 1.839,-0.255 2.689,-0.885 1.45,-1.075 2.412,-2.641 2.87,-4.18 0.075,0.2 0.139,0.399 0.186,0.599 v 0 c 0.949,4.003 -2.979,5.917 -3.143,5.994 z M 55.685,5.424 c -0.358,1.901 -0.684,4.601 -0.684,5.665 V 14 c 0,4.962 -4.038,9 -9,9 H 42.888 C 42.632,22.49 42.401,21.984 42.194,21.482 42.166,21.415 42.143,21.342 42.116,21.274 41.95,20.859 41.798,20.447 41.667,20.038 41.589,19.794 41.526,19.539 41.458,19.288 41.391,19.04 41.315,18.79 41.26,18.545 41.149,18.043 41.057,17.532 41,17.013 41,17.009 40.999,17.004 40.999,17 h 3.4 c 3.553,0 6.201,-2.657 6.561,-6.435 h 0.042 c 0,-3.431 1.372,-4.394 2.959,-5.509 0.68,-0.478 1.381,-0.97 1.982,-1.659 -0.049,0.697 -0.135,1.375 -0.258,2.027 z"
   id="path1"
   style="fill:url(#linearGradient11);fill-opacity:1" />
	<circle
   cx="40.500999"
   cy="29.499001"
   r="0.5"
   id="circle1"
   style="fill:url(#linearGradient12);fill-opacity:1" />
	<circle
   cx="40.500999"
   cy="31.499001"
   r="0.5"
   id="circle2"
   style="fill:url(#linearGradient13);fill-opacity:1" />
	<circle
   cx="38.500999"
   cy="31.499001"
   r="0.5"
   id="circle3"
   style="fill:url(#linearGradient14);fill-opacity:1" />
	<circle
   cx="39.500999"
   cy="30.499001"
   r="0.5"
   id="circle4"
   style="fill:url(#linearGradient15);fill-opacity:1" />
	<circle
   cx="19.500999"
   cy="29.499001"
   r="0.5"
   id="circle5"
   style="fill:url(#linearGradient16);fill-opacity:1" />
	<circle
   cx="19.500999"
   cy="31.499001"
   r="0.5"
   id="circle6"
   style="fill:url(#linearGradient17);fill-opacity:1" />
	<circle
   cx="21.500999"
   cy="31.499001"
   r="0.5"
   id="circle7"
   style="fill:url(#linearGradient18);fill-opacity:1" />
	<circle
   cx="20.500999"
   cy="30.499001"
   r="0.5"
   id="circle8"
   style="fill:url(#linearGradient19);fill-opacity:1" />
	<path
   d="m 35.294,43.292 -5.293,5.293 -5.293,-5.293 c -0.391,-0.391 -1.023,-0.391 -1.414,0 -0.391,0.391 -0.391,1.023 0,1.414 l 5.293,5.293 -0.586,0.586 -1.293,-1.293 c -0.391,-0.391 -1.023,-0.391 -1.414,0 -0.391,0.391 -0.391,1.023 0,1.414 l 2,2 c 0.195,0.195 0.451,0.293 0.707,0.293 0.256,0 0.512,-0.098 0.707,-0.293 l 1.293,-1.293 1.293,1.293 c 0.195,0.195 0.451,0.293 0.707,0.293 0.256,0 0.512,-0.098 0.707,-0.293 l 2,-2 c 0.391,-0.391 0.391,-1.023 0,-1.414 -0.391,-0.391 -1.023,-0.391 -1.414,0 l -1.293,1.293 -0.586,-0.586 5.293,-5.293 c 0.391,-0.391 0.391,-1.023 0,-1.414 -0.391,-0.391 -1.023,-0.39 -1.414,0 z"
   id="path8"
   style="fill:url(#linearGradient20);fill-opacity:1" />
</g></g><g
         style="fill:url(#linearGradient24);fill-opacity:1"
         id="g2"
         transform="matrix(2.8295707,0,0,2.3504069,59.058506,19.293917)"><path
           d="m 25.763,12.291 c 0.099,-0.098 0.235,-0.159 0.385,-0.159 0.301,0 0.545,0.244 0.545,0.545 0,0.301 -0.244,0.545 -0.545,0.545 -0.301,0 -0.545,-0.244 -0.545,-0.545 0,-0.15 0.061,-0.286 0.159,-0.385 v 0 z M 15.342,3.906 c 0.163,-0.171 0.392,-0.278 0.647,-0.278 0.493,0 0.892,0.399 0.892,0.892 0,0.493 -0.399,0.892 -0.892,0.892 -0.413,0 -0.76,-0.28 -0.862,-0.661 L 15.126,4.745 C 15.108,4.677 15.097,4.6 15.097,4.52 c 0,-0.238 0.093,-0.454 0.245,-0.614 z m 11.623,11.995 c 0,0.273 -0.01,0.545 -0.03,0.814 H 25.81 c -0.112,0 -0.158,0.073 -0.158,0.185 v 0.516 c 0,1.216 -0.686,1.48 -1.287,1.547 -0.572,0.065 -1.206,-0.239 -1.284,-0.589 -0.089,-1.265 -0.773,-2.353 -1.772,-2.994 l -0.015,-0.009 c 1.206,-0.593 2.062,-1.736 2.246,-3.093 l 0.002,-0.021 C 23.493,11.028 22.822,9.967 21.837,9.373 L 21.821,9.364 C 21.154,8.926 20.349,8.645 19.482,8.591 L 19.468,8.59 H 7.838 C 9.407,6.841 11.516,5.603 13.901,5.14 l 0.069,-0.011 1.371,1.438 c 0.148,0.155 0.356,0.252 0.587,0.252 0.218,0 0.415,-0.086 0.561,-0.226 v 0 l 1.533,-1.467 c 3.233,0.622 5.913,2.593 7.475,5.291 l 0.028,0.053 -1.05,2.372 c -0.044,0.097 -0.069,0.21 -0.069,0.329 0,0.329 0.195,0.613 0.477,0.742 l 0.005,0.002 2.022,0.898 c 0.035,0.359 0.053,0.721 0.053,1.089 z M 13.522,14.044 v -2.063 h 3.699 c 0.191,0 1.349,0.221 1.349,1.087 0,0.719 -0.888,0.977 -1.618,0.977 z M 5.106,14.723 7.024,13.87 c 0.287,-0.13 0.483,-0.413 0.483,-0.742 0,-0.12 -0.026,-0.233 -0.072,-0.335 l 0.002,0.005 -0.395,-0.893 h 1.554 v 7.001 H 5.462 c -0.266,-0.899 -0.418,-1.931 -0.418,-3 0,-0.417 0.023,-0.829 0.069,-1.234 l -0.005,0.05 z M 6.15,12.247 c 0,-0.295 -0.239,-0.534 -0.534,-0.534 -0.295,0 -0.534,0.239 -0.534,0.534 0,0.295 0.239,0.534 0.534,0.534 0.295,0 0.534,-0.239 0.534,-0.534 z m 3.398,13.78 c -0.061,0.015 -0.13,0.023 -0.202,0.023 -0.493,0 -0.892,-0.399 -0.892,-0.892 0,-0.493 0.399,-0.892 0.892,-0.892 0.493,0 0.892,0.399 0.892,0.892 0,0.096 -0.015,0.189 -0.043,0.276 l 0.002,-0.006 c -0.097,0.3 -0.34,0.526 -0.643,0.599 l -0.006,10e-4 z m 12.389,-2.849 c -0.051,-0.012 -0.11,-0.018 -0.171,-0.018 -0.388,0 -0.713,0.273 -0.792,0.638 l -0.001,0.005 -0.447,2.085 c -1.329,0.615 -2.884,0.974 -4.523,0.974 -1.675,0 -3.263,-0.375 -4.684,-1.046 l 0.067,0.028 -0.447,-2.085 c -0.08,-0.369 -0.404,-0.642 -0.792,-0.642 -0.061,0 -0.12,0.007 -0.177,0.019 L 9.975,23.135 8.134,23.53 C 7.802,23.189 7.49,22.823 7.203,22.437 L 7.182,22.408 h 8.957 c 0.101,0 0.169,-0.018 0.169,-0.11 v -3.169 c 0,-0.092 -0.067,-0.11 -0.169,-0.11 h -2.62 V 17.01 h 2.834 c 0.881,0.009 1.607,0.656 1.741,1.5 l 10e-4,0.01 c 0.113,0.441 0.359,1.88 0.529,2.34 0.168,0.516 0.854,1.547 1.585,1.547 h 4.463 C 24.73,22.406 24.786,22.4 24.84,22.39 l -0.006,10e-4 c -0.326,0.44 -0.658,0.828 -1.016,1.192 l 10e-4,-10e-4 z m 0.428,2.892 c 1.13,0 2.046,-0.917 2.046,-2.047 0,-1.13 -0.916,-2.047 -2.047,-2.047 -1.131,0 -2.047,0.916 -2.047,2.047 0,1.13 0.916,2.046 2.046,2.047 v 0 z M 30.789,15.629 29.53,14.85 q -0.016,-0.184 -0.035,-0.367 l 1.082,-1.008 c 0.084,-0.079 0.136,-0.192 0.136,-0.316 0,-0.184 -0.115,-0.342 -0.277,-0.406 L 30.433,12.752 29.05,12.235 q -0.051,-0.179 -0.109,-0.357 l 0.863,-1.198 c 0.051,-0.07 0.082,-0.158 0.082,-0.253 0,-0.215 -0.156,-0.393 -0.361,-0.427 H 29.522 L 28.064,9.763 Q 27.979,9.598 27.888,9.435 L 28.5,8.09 c 0.025,-0.053 0.039,-0.114 0.039,-0.18 0,-0.09 -0.027,-0.173 -0.075,-0.242 l 0.001,10e-4 C 28.386,7.552 28.253,7.476 28.103,7.476 c -0.005,0 -0.01,0 -0.015,0 h 10e-4 l -1.48,0.052 Q 26.495,7.384 26.375,7.245 l 0.34,-1.441 c 0.007,-0.03 0.011,-0.064 0.011,-0.099 0,-0.24 -0.194,-0.434 -0.434,-0.434 -0.035,0 -0.069,0.004 -0.102,0.012 l 0.003,-0.001 -1.441,0.34 Q 24.611,5.503 24.467,5.388 l 0.052,-1.48 c 0,-0.006 0,-0.013 0,-0.021 0,-0.238 -0.193,-0.43 -0.43,-0.43 -0.066,0 -0.129,0.015 -0.185,0.042 L 23.907,3.498 22.562,4.112 C 22.453,4.053 22.344,3.993 22.234,3.936 L 21.996,2.477 C 21.96,2.27 21.781,2.115 21.567,2.115 c -0.094,0 -0.182,0.03 -0.253,0.081 L 21.315,2.195 20.116,3.058 Q 19.939,3.001 19.759,2.951 L 19.242,1.568 c -0.064,-0.165 -0.222,-0.28 -0.407,-0.28 -0.124,0 -0.236,0.052 -0.316,0.136 v 0 L 17.511,2.507 Q 17.328,2.486 17.144,2.472 L 16.365,1.213 C 16.287,1.089 16.152,1.008 15.997,1.008 c -0.155,0 -0.291,0.081 -0.367,0.204 L 15.629,1.214 14.85,2.473 Q 14.666,2.489 14.483,2.508 L 13.473,1.425 C 13.394,1.34 13.281,1.287 13.156,1.287 c -0.185,0 -0.343,0.116 -0.405,0.279 L 12.75,1.569 12.233,2.952 c -0.12,0.034 -0.238,0.071 -0.357,0.107 L 10.678,2.196 c -0.07,-0.05 -0.157,-0.08 -0.252,-0.08 -0.215,0 -0.393,0.155 -0.429,0.36 V 2.479 L 9.759,3.938 Q 9.594,4.023 9.431,4.114 L 8.086,3.5 C 8.033,3.475 7.971,3.461 7.906,3.461 c -0.239,0 -0.433,0.194 -0.433,0.433 0,0.006 0,0.012 0,0.017 V 3.91 L 7.525,5.39 Q 7.381,5.504 7.24,5.624 L 5.799,5.283 C 5.769,5.276 5.735,5.272 5.7,5.272 c -0.24,0 -0.434,0.194 -0.434,0.434 0,0.035 0.004,0.069 0.012,0.102 L 5.277,5.805 5.616,7.246 C 5.538,7.34 5.459,7.435 5.383,7.529 L 3.903,7.477 c -0.005,0 -0.011,0 -0.017,0 -0.239,0 -0.433,0.194 -0.433,0.433 0,0.065 0.014,0.127 0.04,0.183 L 3.492,8.09 4.106,9.435 Q 4.015,9.597 3.93,9.763 L 2.473,10 c -0.207,0.036 -0.362,0.214 -0.362,0.429 0,0.094 0.03,0.182 0.081,0.253 l -0.001,-0.001 0.863,1.198 q -0.056,0.178 -0.109,0.357 l -1.383,0.517 c -0.165,0.064 -0.28,0.222 -0.28,0.407 0,0.124 0.052,0.236 0.135,0.316 v 0 l 1.082,1.008 Q 2.478,14.667 2.464,14.851 L 1.205,15.63 c -0.125,0.077 -0.208,0.213 -0.208,0.368 0,0.155 0.082,0.292 0.206,0.367 l 0.002,0.001 1.259,0.779 c 0.01,0.123 0.023,0.245 0.035,0.367 l -1.082,1.01 c -0.085,0.079 -0.138,0.192 -0.138,0.317 0,0.185 0.116,0.343 0.279,0.405 l 0.003,0.001 1.383,0.517 c 0.034,0.12 0.071,0.239 0.109,0.357 L 2.19,21.317 c -0.052,0.07 -0.083,0.159 -0.083,0.254 0,0.215 0.158,0.394 0.364,0.426 h 0.002 l 1.457,0.237 c 0.057,0.11 0.115,0.219 0.176,0.328 l -0.614,1.345 c -0.025,0.053 -0.039,0.115 -0.039,0.18 0,0.239 0.194,0.433 0.433,0.433 0.006,0 0.012,0 0.017,0 H 3.902 l 1.479,-0.052 c 0.077,0.096 0.154,0.191 0.234,0.285 l -0.339,1.442 c -0.007,0.03 -0.011,0.064 -0.011,0.099 0,0.239 0.194,0.433 0.433,0.433 0.036,0 0.07,-0.004 0.103,-0.012 l -0.003,0.001 1.441,-0.339 c 0.094,0.08 0.189,0.157 0.285,0.233 l -0.052,1.48 c 0,0.006 0,0.012 0,0.019 0,0.238 0.193,0.43 0.43,0.43 0.066,0 0.129,-0.015 0.185,-0.042 l -0.003,0.001 1.345,-0.612 c 0.109,0.061 0.218,0.119 0.328,0.176 l 0.238,1.457 c 0.036,0.207 0.214,0.363 0.429,0.363 0.094,0 0.181,-0.03 0.253,-0.081 l -10e-4,0.001 1.198,-0.863 q 0.178,0.057 0.357,0.109 l 0.517,1.383 c 0.062,0.167 0.22,0.283 0.405,0.283 0.125,0 0.238,-0.053 0.317,-0.139 v 0 l 1.01,-1.082 c 0.121,0.014 0.244,0.025 0.367,0.037 l 0.779,1.259 c 0.078,0.123 0.214,0.204 0.368,0.204 0.154,0 0.29,-0.081 0.367,-0.203 l 10e-4,-0.002 0.779,-1.259 c 0.123,-0.011 0.245,-0.023 0.367,-0.037 l 1.008,1.082 c 0.079,0.084 0.192,0.136 0.316,0.136 0.184,0 0.342,-0.115 0.406,-0.277 l 0.001,-0.003 0.517,-1.383 q 0.179,-0.051 0.357,-0.109 l 1.198,0.863 c 0.07,0.052 0.159,0.083 0.254,0.083 0.215,0 0.394,-0.158 0.426,-0.364 v -0.002 l 0.238,-1.457 c 0.11,-0.057 0.219,-0.116 0.328,-0.176 l 1.345,0.612 c 0.052,0.024 0.114,0.038 0.179,0.038 0.24,0 0.434,-0.194 0.434,-0.434 0,-0.005 0,-0.009 0,-0.014 v 0.001 l -0.052,-1.48 q 0.144,-0.113 0.283,-0.233 l 1.441,0.339 c 0.03,0.007 0.064,0.011 0.098,0.011 0.24,0 0.434,-0.194 0.434,-0.434 0,-0.035 -0.004,-0.068 -0.012,-0.1 l 10e-4,0.003 -0.339,-1.442 c 0.078,-0.094 0.157,-0.188 0.233,-0.285 l 1.48,0.052 c 0.006,0 0.013,0 0.02,0 0.238,0 0.43,-0.193 0.43,-0.43 0,-0.066 -0.015,-0.129 -0.042,-0.185 l 0.001,0.003 -0.612,-1.345 c 0.059,-0.109 0.119,-0.218 0.176,-0.328 l 1.457,-0.237 c 0.207,-0.036 0.362,-0.215 0.362,-0.429 0,-0.094 -0.03,-0.182 -0.081,-0.253 l 0.001,10e-4 -0.863,-1.198 0.109,-0.357 1.383,-0.517 c 0.166,-0.063 0.282,-0.221 0.282,-0.406 0,-0.125 -0.053,-0.238 -0.138,-0.317 v 0 l -1.082,-1.01 c 0.013,-0.121 0.025,-0.244 0.035,-0.367 l 1.259,-0.779 c 0.125,-0.077 0.208,-0.213 0.208,-0.368 0,-0.155 -0.082,-0.291 -0.206,-0.367 l -0.002,-0.001 z"
           id="path1-5"
           style="fill:url(#linearGradient23);fill-opacity:1" /></g></g></g></svg>
