<?xml version="1.0" encoding="UTF-8" standalone="no"?>
<svg
   version="1.0"
   width="512.000000pt"
   height="512.000000pt"
   viewBox="0 0 512.000000 512.000000"
   preserveAspectRatio="xMidYMid meet"
   id="svg22"
   sodipodi:docname="man-doctor.svg"
   xml:space="preserve"
   inkscape:version="1.3.2 (091e20e, 2023-11-25)"
   xmlns:inkscape="http://www.inkscape.org/namespaces/inkscape"
   xmlns:sodipodi="http://sodipodi.sourceforge.net/DTD/sodipodi-0.dtd"
   xmlns="http://www.w3.org/2000/svg"
   xmlns:svg="http://www.w3.org/2000/svg"><defs
     id="defs22"><inkscape:path-effect
       effect="powerclip"
       id="path-effect25"
       is_visible="true"
       lpeversion="1"
       inverse="true"
       flatten="false"
       hide_clip="false"
       message="Usar a regra de preenchimento par ou ímpar na caixa de diálogo &lt;b&gt;preenchimento e contorno&lt;/b&gt; se nenhum resultado nivelar após converter o clipe em caminhos." /><inkscape:path-effect
       effect="powerclip"
       id="path-effect23"
       is_visible="true"
       lpeversion="1"
       inverse="true"
       flatten="false"
       hide_clip="false"
       message="Usar a regra de preenchimento par ou ímpar na caixa de diálogo &lt;b&gt;preenchimento e contorno&lt;/b&gt; se nenhum resultado nivelar após converter o clipe em caminhos." /><clipPath
       clipPathUnits="userSpaceOnUse"
       id="clipPath23"><rect
         style="display:none;fill:#002304;fill-opacity:0.849129;stroke:#000004;stroke-width:7.5"
         id="rect23"
         width="2258.6555"
         height="2479.3591"
         x="1229.545"
         y="-4749.8315"
         clip-path="none"
         transform="scale(1,-1)" /><path
         id="lpe_path-effect23"
         style="fill:#002304;fill-opacity:0.849129;stroke:#000004;stroke-width:7.5"
         class="powerclip"
         d="M 953.45395,295 H 4403.8114 V 4713.479 H 953.45395 Z" /></clipPath><clipPath
       clipPathUnits="userSpaceOnUse"
       id="clipPath25"><path
         style="display:none;fill:#002304;fill-opacity:0.849129;stroke:#000004;stroke-width:0.75"
         id="path25"
         sodipodi:type="arc"
         sodipodi:cx="2275.1135"
         sodipodi:cy="-3586.8701"
         sodipodi:rx="1225.4995"
         sodipodi:ry="1251.5358"
         sodipodi:start="0"
         sodipodi:end="6.2813751"
         sodipodi:arc-type="slice"
         d="m 3500.613,-3586.8701 a 1225.4995,1251.5358 0 0 1 -1224.9449,1251.5356 1225.4995,1251.5358 0 0 1 -1226.0536,-1250.4028 1225.4995,1251.5358 0 0 1 1223.8352,-1252.6674 1225.4995,1251.5358 0 0 1 1227.1613,1249.269 l -1225.4975,2.2656 z"
         transform="scale(1,-1)" /><path
         id="lpe_path-effect25"
         style="fill:#002304;fill-opacity:0.849129;stroke:#000004;stroke-width:0.75"
         class="powerclip"
         d="M 953.45395,295 H 4403.8114 V 4713.479 H 953.45395 Z" /></clipPath><clipPath
       clipPathUnits="userSpaceOnUse"
       id="clipPath27"><rect
         style="fill:#002304;fill-opacity:0.849129;stroke:#000004;stroke-width:7.5"
         id="rect27"
         width="4164.9424"
         height="2293.2554"
         x="500.87604"
         y="-2336.894"
         transform="scale(1,-1)" /></clipPath><filter
       inkscape:collect="always"
       style="color-interpolation-filters:sRGB"
       id="filter76"
       x="-0.16318663"
       y="-2.341441"
       width="1.3263733"
       height="5.682882"><feGaussianBlur
         inkscape:collect="always"
         stdDeviation="34.549661"
         id="feGaussianBlur76" /></filter><filter
       inkscape:collect="always"
       style="color-interpolation-filters:sRGB"
       id="filter77"
       x="-2.6867432"
       y="-0.17410471"
       width="6.3734863"
       height="1.3482094"><feGaussianBlur
         inkscape:collect="always"
         stdDeviation="34.549661"
         id="feGaussianBlur77" /></filter><filter
       inkscape:collect="always"
       style="color-interpolation-filters:sRGB"
       id="filter78"
       x="-0.18254036"
       y="-2.6127773"
       width="1.3650807"
       height="6.2255545"><feGaussianBlur
         inkscape:collect="always"
         stdDeviation="34.549661"
         id="feGaussianBlur78" /></filter><filter
       inkscape:collect="always"
       style="color-interpolation-filters:sRGB"
       id="filter79"
       x="-2.4479097"
       y="-0.17411128"
       width="5.8958194"
       height="1.3482226"><feGaussianBlur
         inkscape:collect="always"
         stdDeviation="34.549661"
         id="feGaussianBlur79" /></filter></defs><sodipodi:namedview
     id="namedview22"
     pagecolor="#ffffff"
     bordercolor="#000000"
     borderopacity="0.25"
     inkscape:showpageshadow="2"
     inkscape:pageopacity="0.0"
     inkscape:pagecheckerboard="0"
     inkscape:deskcolor="#d1d1d1"
     inkscape:document-units="pt"
     inkscape:zoom="0.54345703"
     inkscape:cx="285.21114"
     inkscape:cy="366.1743"
     inkscape:window-width="1920"
     inkscape:window-height="1011"
     inkscape:window-x="1600"
     inkscape:window-y="32"
     inkscape:window-maximized="1"
     inkscape:current-layer="svg22" /><metadata
     id="metadata1">
Created by potrace 1.16, written by Peter Selinger 2001-2019
</metadata><g
     transform="matrix(0.1,0,0,-0.1,-8.2523585,463.11211)"
     fill="#000000"
     stroke="none"
     id="g22"
     clip-path="url(#clipPath27)"
     inkscape:path-effect="#path-effect23;#path-effect25"
     style="fill:#173258;fill-opacity:1;opacity:1"><path
       d="m 2325,4701 c -18,-5 14,-8 80,-8 88,-1 122,-5 167,-23 68,-25 144,-76 167,-109 13,-20 4,-16 -45,17 -96,66 -147,84 -246,90 -62,3 -88,1 -88,-7 0,-6 16,-11 38,-11 70,0 137,-27 189,-76 31,-29 37,-39 18,-26 -54,35 -116,63 -133,60 -10,-2 3,-15 38,-37 30,-19 75,-47 100,-63 l 45,-29 -40,7 c -94,15 -152,36 -230,83 -156,96 -249,126 -390,125 -182,-1 -351,-85 -445,-220 -64,-92 -83,-262 -40,-361 12,-29 28,-57 35,-63 7,-6 4,6 -6,27 -49,99 -49,238 1,340 99,201 420,308 660,221 115,-42 231,-133 246,-194 4,-14 4,-27 1,-30 -3,-3 -43,32 -89,78 -85,86 -148,125 -215,135 l -38,5 33,-27 c 25,-20 31,-32 26,-50 -4,-15 0,-26 9,-32 8,-4 27,-24 43,-43 29,-35 21,-32 -41,19 -43,35 -125,71 -160,70 h -30 l 35,-13 c 20,-7 56,-26 81,-43 69,-48 209,-203 183,-203 -4,0 -45,36 -91,81 -57,55 -104,90 -146,109 -66,30 -186,52 -173,31 4,-6 16,-11 26,-11 11,0 45,-11 77,-25 61,-27 190,-150 227,-216 13,-23 -7,-7 -66,54 -64,65 -102,95 -150,117 -77,36 -169,48 -233,30 -67,-19 -62,-25 16,-22 115,6 223,-42 321,-144 46,-48 98,-137 98,-167 0,-29 18,-27 112,10 81,33 104,37 178,38 95,0 123,-11 191,-72 57,-51 68,-80 76,-183 6,-90 6,-91 55,-151 27,-34 60,-83 73,-109 l 24,-48 -92,-7 c -83,-6 -97,-5 -132,14 -33,17 -58,21 -145,22 h -105 l 60,24 c 93,37 120,33 196,-26 20,-16 42,-29 49,-29 18,0 -37,61 -83,93 -52,35 -92,35 -237,-3 -63,-17 -120,-28 -127,-26 -7,3 -13,-7 -15,-26 -2,-17 -9,-34 -17,-36 -11,-4 -13,4 -8,39 l 6,44 -16,-29 c -11,-21 -12,-34 -5,-51 10,-22 8,-23 -49,-29 -81,-10 -103,3 -94,55 8,44 -1,52 -15,14 -11,-30 -30,-33 -30,-5 0,17 -7,20 -40,20 -22,0 -76,13 -120,29 -82,30 -100,31 -134,2 -18,-15 -18,-15 -11,7 4,13 10,85 14,160 6,91 14,150 25,176 40,96 104,143 174,130 20,-4 79,-22 130,-41 51,-19 96,-33 99,-30 11,12 -38,99 -82,146 -94,100 -206,151 -334,151 -91,0 -153,-26 -188,-79 -38,-56 -28,-65 27,-27 72,49 109,59 209,54 95,-5 155,-26 227,-81 64,-47 61,-60 -4,-20 -86,52 -151,68 -267,67 -112,0 -167,-20 -200,-70 -15,-23 -16,-32 -6,-61 7,-19 14,-105 15,-205 3,-160 5,-178 30,-238 15,-36 29,-81 32,-101 6,-35 5,-37 -30,-49 -32,-10 -36,-16 -36,-45 0,-24 5,-34 20,-38 18,-4 20,-14 20,-75 0,-38 11,-123 25,-188 20,-94 30,-123 52,-146 15,-15 35,-28 45,-28 10,0 18,-3 18,-7 0,-5 7,-51 15,-103 18,-111 35,-172 63,-227 21,-40 124,-183 172,-240 21,-23 31,-51 40,-103 l 12,-71 -69,-72 c -38,-40 -78,-86 -90,-102 -12,-17 -60,-52 -109,-79 -133,-74 -543,-347 -590,-393 -80,-78 -175,-301 -214,-500 -23,-115 -28,-295 -13,-388 l 9,-50 13,100 c 36,288 105,545 187,706 48,95 63,115 117,157 73,58 228,162 382,257 61,37 120,75 133,83 17,11 8,-9 -36,-79 -32,-52 -65,-111 -72,-131 -13,-35 -12,-39 8,-61 12,-13 22,-28 22,-35 0,-11 -55,-88 -144,-202 -145,-187 -225,-409 -232,-645 l -3,-130 13,75 c 29,157 34,161 29,30 -3,-69 0,-143 5,-165 9,-35 10,-27 11,62 1,126 25,313 52,413 24,87 107,262 148,311 25,29 31,32 45,20 26,-22 19,-57 -17,-85 -60,-46 -114,-174 -96,-224 13,-34 47,-27 94,21 57,57 79,128 71,235 -11,160 -7,189 43,262 34,51 38,64 29,80 -17,27 3,47 87,87 67,32 53,35 -28,7 l -39,-14 38,68 c 41,73 151,239 165,248 10,6 10,-95 1,-328 -4,-86 -3,-153 1,-149 5,5 15,26 23,47 l 15,39 -5,-60 c -3,-33 -24,-114 -46,-179 -46,-133 -110,-374 -136,-511 -24,-124 -25,-346 -2,-398 9,-20 21,-37 26,-37 4,0 23,47 41,104 36,115 107,262 196,406 32,52 80,131 107,175 l 50,80 -7,116 c -6,105 -5,120 13,156 19,36 88,113 103,113 3,0 12,-11 19,-25 8,-14 29,-37 48,-51 l 33,-26 27,23 c 15,13 46,41 70,63 45,43 54,41 24,-2 -32,-47 -188,-324 -236,-420 -97,-194 -426,-993 -426,-1035 0,-4 6,-7 13,-7 8,0 26,32 42,73 41,106 187,447 314,732 154,345 441,855 633,1122 51,70 106,151 124,180 l 31,52 33,-71 33,-71 -67,-176 c -37,-96 -77,-186 -89,-199 -31,-33 -61,-48 -151,-70 -43,-11 -80,-23 -83,-25 -2,-3 13,-38 33,-78 28,-55 38,-88 39,-129 2,-30 0,-49 -2,-42 -4,10 -8,10 -19,1 -8,-6 -25,-8 -41,-4 -24,6 -25,5 -13,-12 7,-10 55,-59 107,-108 51,-50 93,-95 93,-102 0,-34 -224,-314 -699,-873 l -140,-165 41,-3 c 23,-2 51,-1 64,2 34,9 256,255 468,521 301,377 366,466 366,508 0,36 -31,76 -107,137 -91,72 -104,91 -92,134 14,48 30,57 140,72 56,8 117,22 133,32 17,10 44,41 59,70 30,55 87,262 87,314 0,37 -4,39 157,-58 198,-119 593,-392 593,-410 0,-2 -24,-16 -52,-30 -68,-34 -157,-95 -183,-124 -11,-13 9,-2 45,24 35,26 109,69 162,96 l 98,48 -43,38 c -98,91 -381,284 -641,438 -127,75 -195,134 -196,168 0,10 -21,56 -47,104 -33,60 -58,93 -80,107 -23,13 -36,31 -43,57 -6,22 -24,50 -42,65 l -32,27 12,156 c 7,100 15,158 22,160 7,3 27,18 45,34 33,28 41,43 50,87 2,11 15,35 28,53 30,40 99,178 117,232 26,79 9,179 -41,247 -9,12 -5,40 20,127 37,135 40,211 10,308 -54,177 -185,344 -302,386 -15,6 -41,30 -57,53 -56,82 -160,148 -283,181 -54,14 -229,17 -282,5 z m 627,-264 c 24,-14 55,-35 68,-47 l 25,-21 -31,15 c -57,28 -139,56 -159,55 -15,-1 -13,-3 7,-9 34,-10 181,-123 202,-155 23,-34 20,-40 -10,-20 -34,22 -41,12 -21,-30 24,-50 22,-51 -25,-12 -24,19 -59,42 -78,51 -34,16 -34,16 -10,-1 85,-59 270,-271 270,-309 0,-4 -38,33 -85,83 -47,51 -115,114 -151,141 -78,58 -254,149 -304,157 l -35,6 25,-18 c 13,-10 64,-53 113,-95 48,-43 99,-81 112,-84 30,-7 31,-15 6,-38 -17,-15 -22,-16 -53,-3 -18,8 -60,37 -92,65 -88,77 -135,97 -231,97 -92,0 -157,-24 -214,-78 l -34,-32 19,32 c 47,83 351,234 509,253 l 60,7 -50,2 c -38,1 -46,4 -35,12 8,5 47,8 86,6 54,-3 83,-10 116,-30 z M 1715,4269 c -25,-22 -37,-43 -41,-70 -8,-50 -24,-51 -24,-1 0,29 7,45 28,64 25,24 45,35 65,37 4,1 -8,-13 -28,-30 z m 14,-224 c -11,-32 -19,-82 -19,-122 -1,-61 -4,-71 -32,-103 -18,-21 -27,-27 -23,-15 9,22 9,35 -1,116 -7,61 3,91 52,148 38,45 45,38 23,-24 z m 1211,-71 c 83,-63 125,-88 175,-104 66,-21 66,-32 0,-25 -76,9 -113,24 -189,79 -80,58 -104,85 -112,126 l -7,35 34,-31 c 19,-17 63,-53 99,-80 z m 75,1 c 22,-18 56,-42 75,-54 19,-11 30,-21 23,-21 -11,0 -134,88 -158,113 -18,18 18,-4 60,-38 z m -137,-85 c 19,-30 55,-81 79,-112 24,-32 42,-58 40,-58 -22,0 -114,61 -157,105 -50,50 -53,56 -59,119 l -7,66 34,-32 c 19,-18 50,-58 70,-88 z m 205,-62 c 48,-13 74,-25 68,-31 -12,-12 -111,17 -154,44 -18,12 -23,18 -12,14 11,-3 55,-16 98,-27 z m -1356,-67 c -2,-32 -12,-71 -21,-87 l -17,-29 5,60 c 4,60 20,115 32,115 4,0 4,-26 1,-59 z m 133,-85 63,-23 -87,-7 c -48,-4 -94,-10 -102,-13 -22,-8 -16,15 11,42 30,31 37,31 115,1 z m 749,-66 c 46,-13 60,-36 61,-100 0,-106 -32,-131 -173,-132 -148,-2 -182,19 -222,131 -22,65 -11,79 75,97 l 35,6 -20,-22 c -19,-21 -18,-21 29,4 39,20 63,26 115,26 36,0 81,-4 100,-10 z m 411,-1 c -25,-4 -75,-8 -111,-8 -76,-1 -129,-10 -129,-22 0,-4 17,-10 38,-12 l 37,-4 -42,-1 c -38,-2 -43,0 -43,21 0,21 4,22 88,25 48,2 89,6 91,8 2,2 29,3 60,3 l 56,-2 z m -1082,-6 c -38,-2 -98,-2 -135,0 -38,2 -7,3 67,3 74,0 105,-1 68,-3 z m 1251,-10 c 52,-42 46,-165 -13,-290 -82,-172 -145,-220 -192,-148 -14,21 -14,26 1,49 10,14 15,32 12,40 -11,28 18,252 37,280 18,28 100,86 122,86 6,0 22,-8 33,-17 z m -1482,1 c -3,-3 -12,-4 -19,-1 -8,3 -5,6 6,6 11,1 17,-2 13,-5 z m 330,0 c -3,-3 -12,-4 -19,-1 -8,3 -5,6 6,6 11,1 17,-2 13,-5 z m -221,-37 c -31,-41 -33,-50 -6,-42 12,4 33,-3 57,-19 57,-39 120,-35 114,6 -1,11 37,20 59,13 27,-8 25,-25 -2,-25 -21,0 -21,0 -3,-14 19,-14 19,-15 0,-37 -36,-39 -93,-59 -178,-59 -87,0 -131,16 -141,52 -9,35 -7,121 4,138 8,13 10,13 10,-1 0,-9 6,-21 13,-28 11,-8 13,-5 9,17 -3,26 -1,27 43,30 l 47,3 z m 237,-8 c 8,-31 -8,-30 -20,1 -8,22 -8,27 2,24 7,-3 15,-14 18,-25 z m 865,24 c -10,-2 -28,-2 -40,0 -13,2 -5,4 17,4 22,1 32,-1 23,-4 z m -1006,-30 c 4,-38 49,-40 58,-3 4,17 8,21 13,12 5,-7 -2,-22 -16,-36 -20,-20 -31,-23 -53,-17 -37,9 -52,34 -35,55 19,23 29,20 33,-11 z m 848,-1 c 0,-5 -12,-14 -27,-21 l -28,-11 24,20 c 26,22 31,24 31,12 z m -567,-14 c 15,-11 16,-21 7,-73 -5,-33 -10,-121 -10,-195 v -134 l 38,37 c 44,43 58,46 66,13 9,-38 -3,-58 -31,-52 -27,7 -56,-6 -95,-41 -24,-23 -29,-24 -54,-11 -15,7 -36,25 -46,39 -18,24 -19,28 -4,63 18,44 32,117 46,246 10,93 23,120 55,120 6,0 19,-6 28,-12 z m 727,-24 c 8,-22 11,-71 8,-125 -3,-75 -8,-92 -26,-109 -25,-24 -33,-50 -73,-245 -17,-82 -40,-168 -52,-190 -23,-41 -225,-218 -239,-209 -4,3 -8,13 -8,22 -1,9 -9,33 -20,52 l -19,35 -1,-68 c 0,-84 -15,-115 -72,-147 -57,-32 -206,-41 -290,-16 -79,23 -99,49 -106,136 -5,76 -17,91 -28,35 -3,-20 -11,-34 -18,-32 -21,6 -103,136 -120,189 -20,67 -67,271 -62,275 2,2 21,-20 42,-48 33,-45 39,-63 45,-123 7,-66 62,-216 75,-203 3,3 -4,36 -15,73 -11,38 -22,94 -26,125 -7,61 -18,82 -87,162 -27,30 -59,82 -73,118 -18,44 -24,53 -20,29 4,-19 9,-50 12,-67 7,-40 -10,-44 -33,-8 -14,22 -44,161 -61,289 -7,56 11,58 21,2 15,-79 68,-108 199,-108 95,-1 144,18 195,77 18,20 32,32 32,28 0,-52 -36,-221 -55,-265 -24,-53 -25,-60 -11,-86 8,-15 26,-34 41,-42 25,-13 27,-18 21,-62 -6,-43 -5,-48 13,-48 11,0 24,8 30,18 9,16 10,16 16,0 10,-25 45,-23 45,1 0,27 17,35 28,14 8,-14 13,-15 26,-4 8,7 21,28 28,46 6,19 15,32 20,29 4,-3 5,2 2,10 -3,9 -2,16 4,16 6,0 15,14 21,31 11,32 -3,84 -33,119 -7,8 -16,40 -20,71 -3,31 -15,87 -27,124 -26,85 -12,107 20,30 33,-80 68,-99 196,-103 154,-6 218,21 234,100 8,38 28,50 121,71 89,21 87,21 100,-19 z m 16,-625 c -8,-248 -16,-294 -62,-354 -32,-43 -227,-191 -232,-177 -7,22 51,139 118,238 90,132 113,195 139,373 12,78 21,144 21,147 0,2 5,4 11,4 9,0 10,-59 5,-231 z m -241,-319 c -55,-57 -242,-177 -233,-149 5,15 251,190 257,183 3,-2 -8,-18 -24,-34 z m 329,-36 c 18,-59 18,-61 -3,-100 -11,-21 -65,-100 -120,-174 -55,-74 -126,-178 -158,-230 -43,-71 -83,-120 -158,-193 l -101,-97 -96,147 -97,148 -54,-3 c -38,-3 -56,0 -59,10 -4,10 7,12 51,10 54,-3 59,-1 126,48 39,29 135,92 215,142 220,137 378,268 412,343 14,32 20,25 42,-51 z m -844,-175 c 65,-79 110,-158 110,-192 0,-10 -7,-33 -14,-52 -17,-41 -45,-46 -75,-14 -26,28 -67,140 -81,220 -6,35 -13,76 -16,92 -3,15 -2,27 3,27 4,-1 37,-37 73,-81 z m -46,-224 c 19,-36 32,-65 27,-65 -12,0 -92,-84 -107,-112 -11,-19 -12,6 -8,142 7,214 11,233 34,158 10,-31 34,-87 54,-123 z m 1122,73 c 13,-24 13,-36 0,-90 -38,-162 -98,-292 -147,-319 -18,-9 -242,-61 -245,-56 -7,11 -12,55 -6,63 4,6 39,21 77,34 105,35 140,74 200,230 78,201 74,193 91,179 8,-7 22,-25 30,-41 z m -962,-269 c 25,-28 46,-54 46,-58 0,-3 -33,-39 -73,-79 -69,-69 -75,-72 -101,-62 -15,5 -40,10 -56,10 -31,0 -32,3 -46,102 -5,38 -2,54 16,83 29,47 45,54 112,55 55,0 57,-1 102,-51 z m -178,-258 c -49,-163 -96,-418 -96,-515 0,-20 -14,-55 -37,-92 -20,-32 -45,-75 -55,-94 l -20,-35 7,55 c 12,105 65,346 101,460 20,63 45,145 57,182 14,46 24,65 34,61 7,-3 11,-13 9,-22 z m 61,-133 c -3,-8 -6,-5 -6,6 -1,11 2,17 5,13 3,-3 4,-12 1,-19 z m 10,-135 c -3,-10 -5,-4 -5,12 0,17 2,24 5,18 2,-7 2,-21 0,-30 z m -520,-53 c -7,-31 -54,-110 -67,-110 -14,0 1,74 21,107 27,43 54,45 46,3 z m -91,-108 c -12,-11 -18,7 -10,30 l 8,23 4,-23 c 2,-13 1,-26 -2,-30 z"
       id="path1"
       inkscape:original-d="m 2325,4701 c -18,-5 14,-8 80,-8 88,-1 122,-5 167,-23 68,-25 144,-76 167,-109 13,-20 4,-16 -45,17 -96,66 -147,84 -246,90 -62,3 -88,1 -88,-7 0,-6 16,-11 38,-11 70,0 137,-27 189,-76 31,-29 37,-39 18,-26 -54,35 -116,63 -133,60 -10,-2 3,-15 38,-37 30,-19 75,-47 100,-63 l 45,-29 -40,7 c -94,15 -152,36 -230,83 -156,96 -249,126 -390,125 -182,-1 -351,-85 -445,-220 -64,-92 -83,-262 -40,-361 12,-29 28,-57 35,-63 7,-6 4,6 -6,27 -49,99 -49,238 1,340 99,201 420,308 660,221 115,-42 231,-133 246,-194 4,-14 4,-27 1,-30 -3,-3 -43,32 -89,78 -85,86 -148,125 -215,135 l -38,5 33,-27 c 25,-20 31,-32 26,-50 -4,-15 0,-26 9,-32 8,-4 27,-24 43,-43 29,-35 21,-32 -41,19 -43,35 -125,71 -160,70 h -30 l 35,-13 c 20,-7 56,-26 81,-43 69,-48 209,-203 183,-203 -4,0 -45,36 -91,81 -57,55 -104,90 -146,109 -66,30 -186,52 -173,31 4,-6 16,-11 26,-11 11,0 45,-11 77,-25 61,-27 190,-150 227,-216 13,-23 -7,-7 -66,54 -64,65 -102,95 -150,117 -77,36 -169,48 -233,30 -67,-19 -62,-25 16,-22 115,6 223,-42 321,-144 46,-48 98,-137 98,-167 0,-29 18,-27 112,10 81,33 104,37 178,38 95,0 123,-11 191,-72 57,-51 68,-80 76,-183 6,-90 6,-91 55,-151 27,-34 60,-83 73,-109 l 24,-48 -92,-7 c -83,-6 -97,-5 -132,14 -33,17 -58,21 -145,22 h -105 l 60,24 c 93,37 120,33 196,-26 20,-16 42,-29 49,-29 18,0 -37,61 -83,93 -52,35 -92,35 -237,-3 -63,-17 -120,-28 -127,-26 -7,3 -13,-7 -15,-26 -2,-17 -9,-34 -17,-36 -11,-4 -13,4 -8,39 l 6,44 -16,-29 c -11,-21 -12,-34 -5,-51 10,-22 8,-23 -49,-29 -81,-10 -103,3 -94,55 8,44 -1,52 -15,14 -11,-30 -30,-33 -30,-5 0,17 -7,20 -40,20 -22,0 -76,13 -120,29 -82,30 -100,31 -134,2 -18,-15 -18,-15 -11,7 4,13 10,85 14,160 6,91 14,150 25,176 40,96 104,143 174,130 20,-4 79,-22 130,-41 51,-19 96,-33 99,-30 11,12 -38,99 -82,146 -94,100 -206,151 -334,151 -91,0 -153,-26 -188,-79 -38,-56 -28,-65 27,-27 72,49 109,59 209,54 95,-5 155,-26 227,-81 64,-47 61,-60 -4,-20 -86,52 -151,68 -267,67 -112,0 -167,-20 -200,-70 -15,-23 -16,-32 -6,-61 7,-19 14,-105 15,-205 3,-160 5,-178 30,-238 15,-36 29,-81 32,-101 6,-35 5,-37 -30,-49 -32,-10 -36,-16 -36,-45 0,-24 5,-34 20,-38 18,-4 20,-14 20,-75 0,-38 11,-123 25,-188 20,-94 30,-123 52,-146 15,-15 35,-28 45,-28 10,0 18,-3 18,-7 0,-5 7,-51 15,-103 18,-111 35,-172 63,-227 21,-40 124,-183 172,-240 21,-23 31,-51 40,-103 l 12,-71 -69,-72 c -38,-40 -78,-86 -90,-102 -12,-17 -60,-52 -109,-79 -133,-74 -543,-347 -590,-393 -80,-78 -175,-301 -214,-500 -23,-115 -28,-295 -13,-388 l 9,-50 13,100 c 36,288 105,545 187,706 48,95 63,115 117,157 73,58 228,162 382,257 61,37 120,75 133,83 17,11 8,-9 -36,-79 -32,-52 -65,-111 -72,-131 -13,-35 -12,-39 8,-61 12,-13 22,-28 22,-35 0,-11 -55,-88 -144,-202 -145,-187 -225,-409 -232,-645 l -3,-130 13,75 c 29,157 34,161 29,30 -3,-69 0,-143 5,-165 9,-35 10,-27 11,62 1,126 25,313 52,413 24,87 107,262 148,311 25,29 31,32 45,20 26,-22 19,-57 -17,-85 -60,-46 -114,-174 -96,-224 13,-34 47,-27 94,21 57,57 79,128 71,235 -11,160 -7,189 43,262 34,51 38,64 29,80 -17,27 3,47 87,87 67,32 53,35 -28,7 l -39,-14 38,68 c 41,73 151,239 165,248 10,6 10,-95 1,-328 -4,-86 -3,-153 1,-149 5,5 15,26 23,47 l 15,39 -5,-60 c -3,-33 -24,-114 -46,-179 -46,-133 -110,-374 -136,-511 -24,-124 -25,-346 -2,-398 9,-20 21,-37 26,-37 4,0 23,47 41,104 36,115 107,262 196,406 32,52 80,131 107,175 l 50,80 -7,116 c -6,105 -5,120 13,156 19,36 88,113 103,113 3,0 12,-11 19,-25 8,-14 29,-37 48,-51 l 33,-26 27,23 c 15,13 46,41 70,63 45,43 54,41 24,-2 -32,-47 -188,-324 -236,-420 -97,-194 -426,-993 -426,-1035 0,-4 6,-7 13,-7 8,0 26,32 42,73 41,106 187,447 314,732 154,345 441,855 633,1122 51,70 106,151 124,180 l 31,52 33,-71 33,-71 -67,-176 c -37,-96 -77,-186 -89,-199 -31,-33 -61,-48 -151,-70 -43,-11 -80,-23 -83,-25 -2,-3 13,-38 33,-78 28,-55 38,-88 39,-129 2,-30 0,-49 -2,-42 -4,10 -8,10 -19,1 -8,-6 -25,-8 -41,-4 -24,6 -25,5 -13,-12 7,-10 55,-59 107,-108 51,-50 93,-95 93,-102 0,-34 -224,-314 -699,-873 l -140,-165 41,-3 c 23,-2 51,-1 64,2 34,9 256,255 468,521 301,377 366,466 366,508 0,36 -31,76 -107,137 -91,72 -104,91 -92,134 14,48 30,57 140,72 56,8 117,22 133,32 17,10 44,41 59,70 30,55 87,262 87,314 0,37 -4,39 157,-58 198,-119 593,-392 593,-410 0,-2 -24,-16 -52,-30 -68,-34 -157,-95 -183,-124 -11,-13 9,-2 45,24 35,26 109,69 162,96 l 98,48 -43,38 c -98,91 -381,284 -641,438 -127,75 -195,134 -196,168 0,10 -21,56 -47,104 -33,60 -58,93 -80,107 -23,13 -36,31 -43,57 -6,22 -24,50 -42,65 l -32,27 12,156 c 7,100 15,158 22,160 7,3 27,18 45,34 33,28 41,43 50,87 2,11 15,35 28,53 30,40 99,178 117,232 26,79 9,179 -41,247 -9,12 -5,40 20,127 37,135 40,211 10,308 -54,177 -185,344 -302,386 -15,6 -41,30 -57,53 -56,82 -160,148 -283,181 -54,14 -229,17 -282,5 z m 627,-264 c 24,-14 55,-35 68,-47 l 25,-21 -31,15 c -57,28 -139,56 -159,55 -15,-1 -13,-3 7,-9 34,-10 181,-123 202,-155 23,-34 20,-40 -10,-20 -34,22 -41,12 -21,-30 24,-50 22,-51 -25,-12 -24,19 -59,42 -78,51 -34,16 -34,16 -10,-1 85,-59 270,-271 270,-309 0,-4 -38,33 -85,83 -47,51 -115,114 -151,141 -78,58 -254,149 -304,157 l -35,6 25,-18 c 13,-10 64,-53 113,-95 48,-43 99,-81 112,-84 30,-7 31,-15 6,-38 -17,-15 -22,-16 -53,-3 -18,8 -60,37 -92,65 -88,77 -135,97 -231,97 -92,0 -157,-24 -214,-78 l -34,-32 19,32 c 47,83 351,234 509,253 l 60,7 -50,2 c -38,1 -46,4 -35,12 8,5 47,8 86,6 54,-3 83,-10 116,-30 z M 1715,4269 c -25,-22 -37,-43 -41,-70 -8,-50 -24,-51 -24,-1 0,29 7,45 28,64 25,24 45,35 65,37 4,1 -8,-13 -28,-30 z m 14,-224 c -11,-32 -19,-82 -19,-122 -1,-61 -4,-71 -32,-103 -18,-21 -27,-27 -23,-15 9,22 9,35 -1,116 -7,61 3,91 52,148 38,45 45,38 23,-24 z m 1211,-71 c 83,-63 125,-88 175,-104 66,-21 66,-32 0,-25 -76,9 -113,24 -189,79 -80,58 -104,85 -112,126 l -7,35 34,-31 c 19,-17 63,-53 99,-80 z m 75,1 c 22,-18 56,-42 75,-54 19,-11 30,-21 23,-21 -11,0 -134,88 -158,113 -18,18 18,-4 60,-38 z m -137,-85 c 19,-30 55,-81 79,-112 24,-32 42,-58 40,-58 -22,0 -114,61 -157,105 -50,50 -53,56 -59,119 l -7,66 34,-32 c 19,-18 50,-58 70,-88 z m 205,-62 c 48,-13 74,-25 68,-31 -12,-12 -111,17 -154,44 -18,12 -23,18 -12,14 11,-3 55,-16 98,-27 z m -1356,-67 c -2,-32 -12,-71 -21,-87 l -17,-29 5,60 c 4,60 20,115 32,115 4,0 4,-26 1,-59 z m 133,-85 63,-23 -87,-7 c -48,-4 -94,-10 -102,-13 -22,-8 -16,15 11,42 30,31 37,31 115,1 z m 749,-66 c 46,-13 60,-36 61,-100 0,-106 -32,-131 -173,-132 -148,-2 -182,19 -222,131 -22,65 -11,79 75,97 l 35,6 -20,-22 c -19,-21 -18,-21 29,4 39,20 63,26 115,26 36,0 81,-4 100,-10 z m 411,-1 c -25,-4 -75,-8 -111,-8 -76,-1 -129,-10 -129,-22 0,-4 17,-10 38,-12 l 37,-4 -42,-1 c -38,-2 -43,0 -43,21 0,21 4,22 88,25 48,2 89,6 91,8 2,2 29,3 60,3 l 56,-2 z m -1082,-6 c -38,-2 -98,-2 -135,0 -38,2 -7,3 67,3 74,0 105,-1 68,-3 z m 1251,-10 c 52,-42 46,-165 -13,-290 -82,-172 -145,-220 -192,-148 -14,21 -14,26 1,49 10,14 15,32 12,40 -11,28 18,252 37,280 18,28 100,86 122,86 6,0 22,-8 33,-17 z m -1482,1 c -3,-3 -12,-4 -19,-1 -8,3 -5,6 6,6 11,1 17,-2 13,-5 z m 330,0 c -3,-3 -12,-4 -19,-1 -8,3 -5,6 6,6 11,1 17,-2 13,-5 z m -221,-37 c -31,-41 -33,-50 -6,-42 12,4 33,-3 57,-19 57,-39 120,-35 114,6 -1,11 37,20 59,13 27,-8 25,-25 -2,-25 -21,0 -21,0 -3,-14 19,-14 19,-15 0,-37 -36,-39 -93,-59 -178,-59 -87,0 -131,16 -141,52 -9,35 -7,121 4,138 8,13 10,13 10,-1 0,-9 6,-21 13,-28 11,-8 13,-5 9,17 -3,26 -1,27 43,30 l 47,3 z m 237,-8 c 8,-31 -8,-30 -20,1 -8,22 -8,27 2,24 7,-3 15,-14 18,-25 z m 865,24 c -10,-2 -28,-2 -40,0 -13,2 -5,4 17,4 22,1 32,-1 23,-4 z m -1006,-30 c 4,-38 49,-40 58,-3 4,17 8,21 13,12 5,-7 -2,-22 -16,-36 -20,-20 -31,-23 -53,-17 -37,9 -52,34 -35,55 19,23 29,20 33,-11 z m 848,-1 c 0,-5 -12,-14 -27,-21 l -28,-11 24,20 c 26,22 31,24 31,12 z m -567,-14 c 15,-11 16,-21 7,-73 -5,-33 -10,-121 -10,-195 v -134 l 38,37 c 44,43 58,46 66,13 9,-38 -3,-58 -31,-52 -27,7 -56,-6 -95,-41 -24,-23 -29,-24 -54,-11 -15,7 -36,25 -46,39 -18,24 -19,28 -4,63 18,44 32,117 46,246 10,93 23,120 55,120 6,0 19,-6 28,-12 z m 727,-24 c 8,-22 11,-71 8,-125 -3,-75 -8,-92 -26,-109 -25,-24 -33,-50 -73,-245 -17,-82 -40,-168 -52,-190 -23,-41 -225,-218 -239,-209 -4,3 -8,13 -8,22 -1,9 -9,33 -20,52 l -19,35 -1,-68 c 0,-84 -15,-115 -72,-147 -57,-32 -206,-41 -290,-16 -79,23 -99,49 -106,136 -5,76 -17,91 -28,35 -3,-20 -11,-34 -18,-32 -21,6 -103,136 -120,189 -20,67 -67,271 -62,275 2,2 21,-20 42,-48 33,-45 39,-63 45,-123 7,-66 62,-216 75,-203 3,3 -4,36 -15,73 -11,38 -22,94 -26,125 -7,61 -18,82 -87,162 -27,30 -59,82 -73,118 -18,44 -24,53 -20,29 4,-19 9,-50 12,-67 7,-40 -10,-44 -33,-8 -14,22 -44,161 -61,289 -7,56 11,58 21,2 15,-79 68,-108 199,-108 95,-1 144,18 195,77 18,20 32,32 32,28 0,-52 -36,-221 -55,-265 -24,-53 -25,-60 -11,-86 8,-15 26,-34 41,-42 25,-13 27,-18 21,-62 -6,-43 -5,-48 13,-48 11,0 24,8 30,18 9,16 10,16 16,0 10,-25 45,-23 45,1 0,27 17,35 28,14 8,-14 13,-15 26,-4 8,7 21,28 28,46 6,19 15,32 20,29 4,-3 5,2 2,10 -3,9 -2,16 4,16 6,0 15,14 21,31 11,32 -3,84 -33,119 -7,8 -16,40 -20,71 -3,31 -15,87 -27,124 -26,85 -12,107 20,30 33,-80 68,-99 196,-103 154,-6 218,21 234,100 8,38 28,50 121,71 89,21 87,21 100,-19 z m 16,-625 c -8,-248 -16,-294 -62,-354 -32,-43 -227,-191 -232,-177 -7,22 51,139 118,238 90,132 113,195 139,373 12,78 21,144 21,147 0,2 5,4 11,4 9,0 10,-59 5,-231 z m -241,-319 c -55,-57 -242,-177 -233,-149 5,15 251,190 257,183 3,-2 -8,-18 -24,-34 z m 329,-36 c 18,-59 18,-61 -3,-100 -11,-21 -65,-100 -120,-174 -55,-74 -126,-178 -158,-230 -43,-71 -83,-120 -158,-193 l -101,-97 -96,147 -97,148 -54,-3 c -38,-3 -56,0 -59,10 -4,10 7,12 51,10 54,-3 59,-1 126,48 39,29 135,92 215,142 220,137 378,268 412,343 14,32 20,25 42,-51 z m -844,-175 c 65,-79 110,-158 110,-192 0,-10 -7,-33 -14,-52 -17,-41 -45,-46 -75,-14 -26,28 -67,140 -81,220 -6,35 -13,76 -16,92 -3,15 -2,27 3,27 4,-1 37,-37 73,-81 z m -46,-224 c 19,-36 32,-65 27,-65 -12,0 -92,-84 -107,-112 -11,-19 -12,6 -8,142 7,214 11,233 34,158 10,-31 34,-87 54,-123 z m 1122,73 c 13,-24 13,-36 0,-90 -38,-162 -98,-292 -147,-319 -18,-9 -242,-61 -245,-56 -7,11 -12,55 -6,63 4,6 39,21 77,34 105,35 140,74 200,230 78,201 74,193 91,179 8,-7 22,-25 30,-41 z m -962,-269 c 25,-28 46,-54 46,-58 0,-3 -33,-39 -73,-79 -69,-69 -75,-72 -101,-62 -15,5 -40,10 -56,10 -31,0 -32,3 -46,102 -5,38 -2,54 16,83 29,47 45,54 112,55 55,0 57,-1 102,-51 z m -178,-258 c -49,-163 -96,-418 -96,-515 0,-20 -14,-55 -37,-92 -20,-32 -45,-75 -55,-94 l -20,-35 7,55 c 12,105 65,346 101,460 20,63 45,145 57,182 14,46 24,65 34,61 7,-3 11,-13 9,-22 z m 61,-133 c -3,-8 -6,-5 -6,6 -1,11 2,17 5,13 3,-3 4,-12 1,-19 z m 10,-135 c -3,-10 -5,-4 -5,12 0,17 2,24 5,18 2,-7 2,-21 0,-30 z m -520,-53 c -7,-31 -54,-110 -67,-110 -14,0 1,74 21,107 27,43 54,45 46,3 z m -91,-108 c -12,-11 -18,7 -10,30 l 8,23 4,-23 c 2,-13 1,-26 -2,-30 z"
       style="fill:#173258;fill-opacity:1" /><path
       d="m 2708,4393 c 6,-2 18,-2 25,0 6,3 1,5 -13,5 -14,0 -19,-2 -12,-5 z"
       id="path2"
       inkscape:original-d="m 2708,4393 c 6,-2 18,-2 25,0 6,3 1,5 -13,5 -14,0 -19,-2 -12,-5 z"
       style="fill:#173258;fill-opacity:1" /><path
       d="m 2635,4380 c -25,-11 1,-11 35,0 20,6 21,8 5,8 -11,0 -29,-3 -40,-8 z"
       id="path3"
       inkscape:original-d="m 2635,4380 c -25,-11 1,-11 35,0 20,6 21,8 5,8 -11,0 -29,-3 -40,-8 z"
       style="fill:#173258;fill-opacity:1" /><path
       d="m 2835,3875 c 26,-43 88,-115 93,-110 6,6 -61,96 -89,120 l -23,20 z"
       id="path4"
       inkscape:original-d="m 2835,3875 c 26,-43 88,-115 93,-110 6,6 -61,96 -89,120 l -23,20 z"
       style="fill:#173258;fill-opacity:1" /><path
       d="m 2400,3560 c -41,-49 -41,-49 -18,-55 13,-3 36,-2 50,4 22,8 31,6 53,-15 30,-27 48,-29 122,-12 61,14 65,26 28,74 -28,37 -74,54 -147,54 -43,0 -49,-3 -88,-50 z m 124,24 c 15,-6 15,-7 0,-18 -11,-9 -14,-20 -10,-34 9,-29 50,-29 69,-1 10,13 17,16 22,10 20,-33 -88,-58 -115,-27 -6,8 -28,16 -48,18 l -37,3 40,28 c 41,28 53,31 79,21 z"
       id="path5"
       inkscape:original-d="m 2400,3560 c -41,-49 -41,-49 -18,-55 13,-3 36,-2 50,4 22,8 31,6 53,-15 30,-27 48,-29 122,-12 61,14 65,26 28,74 -28,37 -74,54 -147,54 -43,0 -49,-3 -88,-50 z m 124,24 c 15,-6 15,-7 0,-18 -11,-9 -14,-20 -10,-34 9,-29 50,-29 69,-1 10,13 17,16 22,10 20,-33 -88,-58 -115,-27 -6,8 -28,16 -48,18 l -37,3 40,28 c 41,28 53,31 79,21 z"
       style="fill:#173258;fill-opacity:1" /><path
       d="m 3108,3543 c -42,-44 -70,-126 -62,-183 5,-36 2,-54 -11,-74 -13,-20 -15,-30 -7,-38 8,-8 23,1 57,34 51,51 60,96 26,132 -18,19 -18,24 -6,54 8,17 19,32 25,32 5,0 10,-2 10,-5 0,-2 6,-29 14,-59 18,-66 7,-116 -29,-144 -14,-11 -25,-25 -25,-31 0,-35 56,21 70,70 6,19 10,67 10,106 0,45 4,73 11,73 6,0 9,12 7,28 -5,40 -54,43 -90,5 z"
       id="path6"
       inkscape:original-d="m 3108,3543 c -42,-44 -70,-126 -62,-183 5,-36 2,-54 -11,-74 -13,-20 -15,-30 -7,-38 8,-8 23,1 57,34 51,51 60,96 26,132 -18,19 -18,24 -6,54 8,17 19,32 25,32 5,0 10,-2 10,-5 0,-2 6,-29 14,-59 18,-66 7,-116 -29,-144 -14,-11 -25,-25 -25,-31 0,-35 56,21 70,70 6,19 10,67 10,106 0,45 4,73 11,73 6,0 9,12 7,28 -5,40 -54,43 -90,5 z"
       style="fill:#173258;fill-opacity:1" /><path
       d="m 2743,3235 c -90,-121 -104,-157 -113,-297 -5,-68 -12,-143 -15,-168 -5,-30 -4,-42 2,-35 21,21 44,103 57,205 12,95 19,117 70,219 71,140 70,173 -1,76 z"
       id="path7"
       inkscape:original-d="m 2743,3235 c -90,-121 -104,-157 -113,-297 -5,-68 -12,-143 -15,-168 -5,-30 -4,-42 2,-35 21,21 44,103 57,205 12,95 19,117 70,219 71,140 70,173 -1,76 z"
       style="fill:#173258;fill-opacity:1" /><path
       d="m 2568,3203 c 7,-3 16,-2 19,1 4,3 -2,6 -13,5 -11,0 -14,-3 -6,-6 z"
       id="path8"
       inkscape:original-d="m 2568,3203 c 7,-3 16,-2 19,1 4,3 -2,6 -13,5 -11,0 -14,-3 -6,-6 z"
       style="fill:#173258;fill-opacity:1" /><path
       d="m 2409,3088 c 67,-67 94,-114 106,-188 9,-57 24,-86 26,-50 5,94 -22,153 -106,236 -36,35 -71,64 -78,64 -6,0 17,-28 52,-62 z"
       id="path9"
       inkscape:original-d="m 2409,3088 c 67,-67 94,-114 106,-188 9,-57 24,-86 26,-50 5,94 -22,153 -106,236 -36,35 -71,64 -78,64 -6,0 17,-28 52,-62 z"
       style="fill:#173258;fill-opacity:1" /><path
       d="m 1961,3007 c -13,-21 -12,-21 5,-5 10,10 16,20 13,22 -3,3 -11,-5 -18,-17 z"
       id="path10"
       inkscape:original-d="m 1961,3007 c -13,-21 -12,-21 5,-5 10,10 16,20 13,22 -3,3 -11,-5 -18,-17 z"
       style="fill:#173258;fill-opacity:1" /><path
       d="m 2036,2920 c -46,-4 -62,-10 -73,-27 -17,-25 -2,-40 20,-19 22,22 459,23 477,1 16,-19 40,-20 40,-2 0,8 -9,22 -21,33 -19,17 -38,19 -203,19 -99,0 -207,-2 -240,-5 z"
       id="path11"
       inkscape:original-d="m 2036,2920 c -46,-4 -62,-10 -73,-27 -17,-25 -2,-40 20,-19 22,22 459,23 477,1 16,-19 40,-20 40,-2 0,8 -9,22 -21,33 -19,17 -38,19 -203,19 -99,0 -207,-2 -240,-5 z"
       style="fill:#173258;fill-opacity:1" /><path
       d="m 2345,2848 c -16,-6 -91,-11 -167,-12 l -136,-1 31,-26 c 25,-21 29,-29 20,-40 -9,-12 7,-14 102,-14 69,0 108,3 99,8 -13,7 -4,16 38,44 83,55 86,66 13,41 z"
       id="path12"
       inkscape:original-d="m 2345,2848 c -16,-6 -91,-11 -167,-12 l -136,-1 31,-26 c 25,-21 29,-29 20,-40 -9,-12 7,-14 102,-14 69,0 108,3 99,8 -13,7 -4,16 38,44 83,55 86,66 13,41 z"
       style="fill:#173258;fill-opacity:1" /><path
       d="m 2445,2677 c -12,-19 -33,-36 -53,-42 -39,-11 -43,-30 -4,-21 30,7 82,58 82,81 0,20 -2,19 -25,-18 z"
       id="path13"
       inkscape:original-d="m 2445,2677 c -12,-19 -33,-36 -53,-42 -39,-11 -43,-30 -4,-21 30,7 82,58 82,81 0,20 -2,19 -25,-18 z"
       style="fill:#173258;fill-opacity:1" /><path
       d="m 2141,2335 c 0,-5 16,-41 35,-80 18,-38 31,-59 28,-45 -8,29 -63,140 -63,125 z"
       id="path14"
       inkscape:original-d="m 2141,2335 c 0,-5 16,-41 35,-80 18,-38 31,-59 28,-45 -8,29 -63,140 -63,125 z"
       style="fill:#173258;fill-opacity:1" /><path
       d="m 1899,1837 c -44,-121 -188,-499 -214,-560 -36,-85 -83,-272 -100,-401 -8,-61 -17,-195 -21,-298 -7,-175 -6,-188 11,-194 29,-11 50,10 53,52 30,452 60,610 223,1182 45,156 79,285 77,287 -2,2 -15,-29 -29,-68 z"
       id="path15"
       inkscape:original-d="m 1899,1837 c -44,-121 -188,-499 -214,-560 -36,-85 -83,-272 -100,-401 -8,-61 -17,-195 -21,-298 -7,-175 -6,-188 11,-194 29,-11 50,10 53,52 30,452 60,610 223,1182 45,156 79,285 77,287 -2,2 -15,-29 -29,-68 z"
       style="fill:#173258;fill-opacity:1" /><path
       d="m 3270,1543 c -147,-310 -204,-471 -245,-692 -21,-114 -21,-111 24,-111 38,0 39,1 46,43 23,139 91,381 204,727 44,134 79,245 77,247 -1,2 -49,-94 -106,-214 z"
       id="path16"
       inkscape:original-d="m 3270,1543 c -147,-310 -204,-471 -245,-692 -21,-114 -21,-111 24,-111 38,0 39,1 46,43 23,139 91,381 204,727 44,134 79,245 77,247 -1,2 -49,-94 -106,-214 z"
       style="fill:#173258;fill-opacity:1" /><path
       d="m 4205,1590 c 10,-11 20,-20 23,-20 3,0 -3,9 -13,20 -10,11 -20,20 -23,20 -3,0 3,-9 13,-20 z"
       id="path17"
       inkscape:original-d="m 4205,1590 c 10,-11 20,-20 23,-20 3,0 -3,9 -13,20 -10,11 -20,20 -23,20 -3,0 3,-9 13,-20 z"
       style="fill:#173258;fill-opacity:1" /><path
       d="m 4265,1516 c 45,-61 62,-93 91,-176 15,-39 22,-51 18,-30 -9,53 -68,170 -109,215 l -36,40 z"
       id="path18"
       inkscape:original-d="m 4265,1516 c 45,-61 62,-93 91,-176 15,-39 22,-51 18,-30 -9,53 -68,170 -109,215 l -36,40 z"
       style="fill:#173258;fill-opacity:1" /><path
       d="m 3971,1385 c -30,-9 -77,-28 -105,-43 -148,-79 -352,-375 -415,-602 -24,-85 -38,-247 -26,-306 7,-38 8,-34 40,82 90,327 231,592 403,756 91,87 129,102 227,86 173,-27 255,-164 243,-410 l -4,-93 19,60 c 14,41 20,91 21,160 1,88 -2,107 -25,156 -30,62 -82,119 -137,145 -49,24 -170,28 -241,9 z"
       id="path19"
       inkscape:original-d="m 3971,1385 c -30,-9 -77,-28 -105,-43 -148,-79 -352,-375 -415,-602 -24,-85 -38,-247 -26,-306 7,-38 8,-34 40,82 90,327 231,592 403,756 91,87 129,102 227,86 173,-27 255,-164 243,-410 l -4,-93 19,60 c 14,41 20,91 21,160 1,88 -2,107 -25,156 -30,62 -82,119 -137,145 -49,24 -170,28 -241,9 z"
       style="fill:#173258;fill-opacity:1" /><path
       d="m 4382,1250 c 0,-14 2,-19 5,-12 2,6 2,18 0,25 -3,6 -5,1 -5,-13 z"
       id="path20"
       inkscape:original-d="m 4382,1250 c 0,-14 2,-19 5,-12 2,6 2,18 0,25 -3,6 -5,1 -5,-13 z"
       style="fill:#173258;fill-opacity:1" /><path
       d="m 4391,1174 c 0,-11 3,-14 6,-6 3,7 2,16 -1,19 -3,4 -6,-2 -5,-13 z"
       id="path21"
       inkscape:original-d="m 4391,1174 c 0,-11 3,-14 6,-6 3,7 2,16 -1,19 -3,4 -6,-2 -5,-13 z"
       style="fill:#173258;fill-opacity:1" /><path
       d="m 2630,591 -55,-7 60,-9 c 80,-12 490,-12 590,-1 79,10 80,10 35,17 -53,9 -551,8 -630,0 z"
       id="path22"
       inkscape:original-d="m 2630,591 -55,-7 60,-9 c 80,-12 490,-12 590,-1 79,10 80,10 35,17 -53,9 -551,8 -630,0 z"
       style="fill:#173258;fill-opacity:1" /></g><g
     transform="matrix(0.08083008,0,0,-0.06752729,4.7167368,395.45183)"
     fill="#000000"
     stroke="none"
     id="g42"
     style="fill:#173258;fill-opacity:1;opacity:1"><path
       d="m 3384,4720 c -17,-11 -57,-54 -89,-96 -57,-74 -84,-95 -137,-108 -21,-5 -28,-3 -28,9 0,19 -2,19 -46,0 -23,-9 -74,-15 -145,-16 -100,-1 -113,1 -133,20 -20,19 -25,20 -35,7 -49,-58 -208,-81 -286,-41 -34,17 -45,19 -45,9 0,-43 -86,15 -155,103 -64,83 -107,113 -160,113 -31,0 -45,-7 -76,-39 -81,-86 -114,-284 -91,-543 4,-43 4,-78 1,-78 -4,0 -5,-44 -2,-98 6,-96 5,-98 -18,-109 -19,-9 -20,-12 -6,-12 28,-1 17,-32 -22,-58 l -34,-23 h 37 37 l -36,-31 c -42,-37 -40,-47 4,-24 57,29 32,6 -35,-32 -59,-34 -63,-39 -40,-43 24,-5 24,-5 -15,-34 -44,-33 -45,-42 -3,-26 l 29,11 -23,-24 c -13,-14 -46,-36 -73,-49 l -50,-23 36,-5 36,-5 -47,-48 c -25,-27 -60,-58 -78,-69 l -31,-20 49,7 48,7 -30,-44 c -41,-60 -111,-128 -147,-144 l -30,-13 39,-1 c 52,0 112,30 161,81 40,41 40,41 9,26 -17,-9 -34,-14 -37,-10 -10,9 85,104 117,118 29,12 29,13 7,20 l -23,7 23,24 c 13,13 44,38 71,55 53,34 60,44 26,36 -16,-4 -3,13 42,56 36,35 79,73 95,85 l 30,23 -35,-17 c -38,-18 -172,-143 -166,-153 3,-4 -12,-17 -31,-30 -32,-20 -35,-21 -29,-5 11,29 96,141 155,205 30,32 81,75 115,94 34,20 50,33 36,30 l -25,-6 25,21 c 36,30 88,56 172,85 57,20 65,25 36,22 -21,-1 -38,-2 -38,0 0,1 26,15 57,30 65,30 146,41 192,25 40,-14 40,-7 -1,14 -31,16 -117,16 -178,-1 l -25,-7 25,21 c 14,12 66,46 116,75 98,59 114,80 114,151 0,44 -15,62 -22,28 -3,-13 -10,-7 -26,22 l -21,40 -1,-47 c 0,-50 -14,-64 -26,-26 -4,12 -23,47 -42,76 -20,29 -36,61 -37,70 -1,9 -5,28 -10,41 l -7,24 47,-28 48,-27 -7,26 c -9,38 6,32 57,-23 85,-90 114,-184 83,-270 -19,-53 -16,-62 10,-24 14,21 19,46 19,100 0,70 -1,73 -52,146 -29,42 -53,77 -53,80 0,2 31,7 69,10 38,3 83,13 100,21 38,20 41,20 41,-1 1,-12 5,-7 13,11 11,26 14,27 26,12 12,-15 27,-16 108,-10 68,5 93,4 93,-5 0,-8 5,-9 19,-1 38,20 54,13 47,-21 l -6,-30 28,19 c 59,41 58,42 34,-28 -9,-27 128,113 190,194 73,95 113,117 159,89 17,-10 40,-34 52,-53 l 22,-35 -29,23 c -58,45 -124,22 -189,-66 -23,-31 -72,-96 -110,-144 -71,-91 -96,-139 -98,-185 l -1,-28 -8,25 c -4,14 -9,41 -9,60 l -2,35 -24,-40 c -26,-42 -30,-37 -26,33 3,42 -4,41 -29,-8 -25,-49 -26,-120 -2,-149 9,-11 75,-52 147,-92 167,-91 204,-118 128,-88 -55,21 -139,29 -194,19 -66,-13 -87,-30 -25,-20 52,8 175,-5 190,-20 7,-7 4,-10 -9,-10 -11,0 10,-11 46,-24 70,-24 148,-64 189,-96 l 25,-20 -60,5 -60,6 72,-24 c 90,-30 148,-64 193,-113 l 35,-37 -40,24 c -38,22 -37,20 27,-51 37,-41 62,-77 57,-81 -6,-4 2,-25 20,-54 17,-27 31,-53 31,-57 0,-5 -21,3 -47,18 -61,35 -60,34 -43,44 11,7 4,20 -35,65 -28,31 -66,66 -85,78 -29,18 -23,8 35,-56 61,-68 79,-98 52,-89 -22,7 10,-22 58,-53 95,-60 235,-260 280,-399 15,-47 30,-85 32,-82 9,8 -28,139 -53,189 -15,28 -47,80 -71,115 -25,34 -40,62 -34,62 5,0 13,-4 16,-10 3,-5 15,-15 26,-21 18,-9 19,-8 11,8 -6,10 -35,53 -66,96 -54,75 -54,77 -23,61 l 32,-16 -26,28 c -15,16 -44,64 -66,106 l -40,77 28,-20 c 16,-11 56,-54 90,-96 34,-41 76,-84 93,-94 l 31,-19 h -33 -34 l 89,-96 c 48,-53 104,-107 123,-120 l 35,-24 h -28 c -16,0 -38,5 -49,11 -21,11 -21,11 1,-19 12,-17 54,-61 94,-97 68,-63 70,-65 33,-51 l -39,16 44,-47 c 23,-26 57,-59 73,-75 l 31,-28 -30,6 c -16,3 -39,8 -50,10 l -20,5 20,-16 c 11,-9 31,-18 45,-21 14,-3 36,-10 50,-15 19,-7 13,-8 -23,-4 l -49,5 59,-61 c 32,-34 75,-74 96,-89 l 37,-28 -25,-19 -24,-18 72,-80 72,-79 -59,33 c -50,29 -57,31 -47,13 29,-54 177,-142 239,-142 h 35 l -39,29 c -21,16 -83,73 -137,128 l -98,99 31,22 c 35,26 39,42 9,42 -22,0 -129,95 -129,116 0,7 9,15 19,19 11,3 24,12 30,19 9,11 3,18 -32,35 -24,11 -56,34 -72,51 l -29,30 h 32 c 17,0 34,5 37,10 3,6 -1,10 -10,10 -9,0 -53,35 -98,78 l -82,78 30,15 c 37,17 39,33 5,37 -16,3 -60,40 -121,102 -95,98 -96,98 -71,110 l 25,11 -29,15 c -29,15 -94,73 -94,83 0,4 16,16 35,29 44,28 45,42 3,42 -54,0 -104,19 -157,58 -27,20 -58,42 -68,49 -15,10 -13,11 17,6 l 35,-6 -41,31 c -22,16 -51,43 -63,58 l -23,29 26,9 c 28,10 35,26 13,26 -8,0 -22,9 -31,19 -16,17 -16,26 -6,76 6,31 9,59 7,62 -3,3 -2,16 3,29 7,18 6,24 -5,24 -11,0 -14,28 -13,163 1,237 -36,383 -117,465 -48,48 -81,54 -131,22 z m -1200,-50 c 18,-10 63,-63 102,-116 38,-53 81,-111 97,-129 15,-18 27,-36 27,-40 0,-16 -83,66 -143,141 -91,113 -148,138 -205,89 -28,-23 -30,-24 -25,-5 3,11 18,34 33,50 33,35 69,39 114,10 z m 1209,-165 -28,-24 38,6 c 52,8 46,-2 -13,-22 -64,-21 -69,-31 -15,-27 24,2 52,-1 62,-7 15,-9 11,-10 -23,-11 -32,0 -49,-7 -80,-35 l -39,-35 37,15 c 21,8 50,15 65,14 26,0 27,-1 9,-12 -11,-7 -36,-27 -55,-44 -36,-32 -30,-43 12,-23 18,9 17,7 -3,-7 -14,-10 -38,-31 -55,-46 -30,-28 -30,-29 -5,-23 80,19 78,20 41,-13 -19,-17 -48,-33 -65,-37 -25,-5 -34,-2 -53,20 -31,37 -29,77 9,150 35,66 146,186 173,186 12,0 9,-6 -12,-25 z m -1226,9 c -3,-3 -12,-4 -19,-1 -8,3 -5,6 6,6 11,1 17,-2 13,-5 z m 77,-51 c 49,-40 118,-127 144,-179 25,-54 -5,-115 -65,-130 -30,-8 -78,14 -78,35 0,7 -9,20 -20,28 -19,14 -17,15 20,8 l 39,-7 -42,46 c -23,25 -42,47 -42,50 0,2 19,2 43,0 l 42,-5 -35,20 c -19,11 -43,20 -52,21 -10,0 -18,5 -18,11 0,7 12,8 33,4 l 32,-6 -25,20 c -14,11 -31,21 -38,21 -7,0 -10,5 -7,10 3,6 15,10 27,10 30,0 8,24 -48,50 -24,12 -44,24 -44,26 0,2 20,4 44,4 36,0 52,-7 90,-37 z m -218,-304 c 9,-19 29,-52 43,-73 24,-36 26,-37 31,-17 4,20 9,16 40,-30 l 36,-53 -63,-63 c -34,-35 -66,-63 -71,-63 -10,0 -42,104 -42,139 0,18 3,20 19,11 19,-9 18,-6 -4,43 -16,34 -28,86 -34,142 -11,108 -2,141 15,58 7,-33 20,-76 30,-94 z m 1540,-16 c -20,-59 -20,-60 4,-38 27,24 26,6 -3,-66 l -23,-56 23,5 c 27,5 28,2 4,-66 l -18,-52 -34,23 c -18,12 -46,40 -61,62 -25,36 -27,46 -21,98 l 6,59 23,-29 c 20,-25 24,-26 37,-13 8,8 27,46 43,83 31,74 46,66 20,-10 z m 41,25 c -3,-7 -5,-2 -5,12 0,14 2,19 5,13 2,-7 2,-19 0,-25 z m -277,7 c 0,-9 -44,-45 -54,-45 -6,0 2,12 17,25 28,24 37,30 37,20 z m -1099,-89 c 17,-32 28,-61 25,-64 -14,-13 -56,44 -65,90 -18,80 -13,77 40,-26 z m 74,16 c -3,-3 -18,7 -33,23 l -27,28 33,-23 c 18,-12 31,-25 27,-28 z m 1135,33 c 0,-3 -12,-18 -26,-33 l -26,-27 16,33 c 14,27 36,44 36,27 z m 465,-555 c 18,-1 18,-1 3,-11 -13,-7 -25,-5 -45,6 -27,16 -27,16 -3,11 14,-3 34,-6 45,-6 z"
       id="path1-2"
       style="fill:#173258;fill-opacity:1" /><path
       d="m 2786,4278 c 4,-21 1,-91 -6,-155 -8,-80 -8,-131 -2,-158 l 10,-40 1,33 c 1,18 8,64 17,102 13,57 14,83 5,139 -6,38 -15,79 -21,92 -8,20 -9,17 -4,-13 z"
       id="path2-0"
       style="fill:#173258;fill-opacity:1" /><path
       d="m 2898,4268 c -26,-39 -40,-98 -34,-134 9,-46 25,-43 19,4 -3,23 3,59 14,95 11,31 19,57 18,57 -2,0 -9,-10 -17,-22 z"
       id="path3-2"
       style="fill:#173258;fill-opacity:1" /><path
       d="m 2834,3893 c -1,-57 -7,-91 -22,-126 -12,-27 -22,-61 -23,-75 -1,-15 -7,2 -15,38 -16,71 -59,171 -92,210 l -21,25 10,-45 c 6,-25 26,-98 44,-163 38,-130 55,-218 55,-289 0,-26 5,-50 10,-53 6,-3 10,-16 10,-27 0,-12 2,-19 5,-16 3,2 9,69 14,149 8,128 13,155 45,244 20,55 48,119 62,142 33,56 24,55 -13,-1 l -30,-45 -17,55 c -9,30 -18,54 -19,54 -1,0 -3,-35 -3,-77 z"
       id="path4-3"
       style="fill:#173258;fill-opacity:1" /><path
       d="m 3015,3706 c -38,-17 -90,-72 -104,-109 -6,-16 -11,-47 -11,-70 0,-61 45,-231 70,-266 65,-92 140,-320 140,-427 0,-40 -6,-59 -23,-81 -45,-55 -49,-67 -8,-23 41,44 41,45 35,15 -3,-16 -17,-40 -31,-52 -28,-26 -18,-31 15,-8 15,12 20,12 17,3 -2,-7 -6,-24 -9,-38 -2,-14 -7,-33 -11,-42 -6,-14 -2,-18 16,-19 19,-1 20,-2 6,-6 -10,-3 -40,-27 -66,-54 l -47,-49 -75,1 c -73,0 -149,17 -86,18 30,1 97,26 97,36 0,4 -10,3 -22,-1 -34,-11 -88,-22 -88,-19 0,2 21,15 46,30 93,55 112,183 36,246 -15,13 -44,17 -126,18 -92,2 -111,-1 -140,-19 -42,-25 -60,-67 -54,-125 7,-58 28,-89 86,-126 25,-16 44,-29 41,-29 -2,0 -28,7 -56,14 -29,8 -53,12 -53,10 0,-10 71,-34 102,-34 29,-1 31,-2 14,-12 -29,-16 -146,-14 -181,5 -35,18 -54,39 -80,89 -24,46 -17,55 21,27 16,-11 11,-5 -11,15 -36,32 -46,36 -110,39 l -70,3 79,2 c 69,2 77,4 66,17 -20,24 -3,31 22,9 16,-12 14,-9 -4,12 -21,23 -28,40 -28,72 0,72 -41,245 -55,230 -1,-1 3,-50 11,-107 7,-58 12,-106 11,-108 -2,-1 -29,37 -60,85 -40,61 -57,80 -57,65 0,-29 -35,-51 -94,-59 -46,-7 -48,-6 -91,40 -50,51 -54,49 -26,-17 l 19,-45 -36,-7 c -20,-4 -49,-13 -65,-22 -22,-11 -27,-12 -21,-1 4,7 23,38 42,68 18,30 25,45 15,34 -11,-12 -28,-24 -39,-27 -72,-20 -71,-22 -19,33 l 50,52 -35,-7 c -74,-14 -141,-39 -202,-75 -35,-21 -64,-35 -66,-30 -2,5 4,22 12,39 22,41 20,48 -7,25 -13,-10 -10,-7 5,9 18,17 23,27 14,27 -8,0 -42,-28 -75,-61 -34,-34 -61,-57 -61,-50 0,27 56,128 94,170 43,47 149,121 174,121 9,0 3,-12 -17,-35 -17,-20 -31,-38 -31,-40 0,-6 102,25 132,41 15,8 45,29 65,47 l 38,32 -34,-43 c -34,-44 -53,-55 -143,-87 -26,-9 -58,-25 -70,-35 -19,-16 -12,-15 40,6 94,37 105,27 32,-29 -34,-27 -60,-50 -58,-52 7,-7 116,34 138,52 31,26 65,87 95,172 29,81 100,203 141,244 22,22 36,27 75,27 43,0 52,-4 85,-40 28,-30 53,-45 98,-58 54,-16 63,-22 80,-56 19,-39 19,-39 -4,-115 -43,-141 -61,-216 -58,-246 2,-22 10,-4 32,70 38,135 83,241 111,263 32,25 45,184 20,267 -25,86 -107,167 -167,164 -18,-1 -16,-3 11,-12 19,-6 55,-30 79,-53 l 44,-43 -4,-68 c -4,-54 -1,-76 16,-110 l 20,-43 -24,-47 -23,-48 -9,35 c -5,19 -20,46 -32,61 -12,14 -28,40 -35,58 -10,23 -23,33 -50,40 -62,16 -223,24 -254,12 -16,-6 -65,-40 -110,-75 -45,-35 -104,-78 -132,-95 l -50,-33 45,6 45,6 -29,-19 c -31,-21 -76,-33 -176,-50 -58,-10 -69,-16 -115,-61 -49,-49 -49,-50 -18,-41 18,5 38,13 44,17 16,9 8,-4 -51,-81 -43,-57 -90,-164 -90,-205 0,-9 -9,-32 -19,-53 -21,-40 -14,-46 25,-21 13,9 26,15 29,13 2,-3 0,-22 -5,-44 -5,-22 -10,-66 -10,-98 0,-32 -7,-74 -15,-94 -8,-20 -13,-38 -11,-41 3,-2 27,17 54,43 l 50,46 -5,-58 c -3,-34 0,-77 8,-103 l 12,-45 10,48 c 5,26 12,47 16,47 4,0 13,-44 21,-97 l 13,-98 30,63 c 29,62 47,80 27,28 -5,-15 -10,-69 -9,-119 0,-82 2,-90 14,-72 44,63 43,63 34,5 -9,-60 -7,-69 16,-50 19,16 18,16 39,-44 23,-71 21,-90 -16,-122 l -33,-27 33,6 33,7 -6,-63 c -19,-182 -24,-211 -45,-238 -22,-31 -17,-35 24,-19 l 26,10 v -103 c 0,-114 16,-192 55,-265 14,-26 23,-37 20,-26 -22,85 -36,189 -42,306 -6,134 -6,136 -24,115 -16,-18 -14,-10 7,48 38,104 39,104 57,17 25,-112 68,-194 146,-272 72,-71 61,-66 -38,19 -35,31 -59,47 -53,36 21,-39 88,-94 142,-118 104,-46 194,-145 250,-274 30,-70 37,-62 21,23 -15,80 -49,158 -103,241 -28,43 -68,110 -89,148 -40,72 -50,70 -24,-6 14,-42 14,-43 -3,-19 -9,13 -44,61 -78,105 -59,81 -97,152 -109,210 -5,25 -1,22 19,-17 36,-65 112,-137 229,-215 112,-76 182,-149 233,-243 l 35,-65 -71,75 -70,75 56,-120 c 31,-66 69,-158 84,-205 l 27,-85 8,58 c 4,32 4,80 0,105 -8,53 -8,49 3,117 6,40 9,46 15,28 20,-56 25,-139 16,-264 -5,-74 -6,-181 -3,-238 l 7,-104 37,114 c 45,144 110,265 178,338 30,31 51,47 47,36 -22,-67 -56,-208 -52,-218 2,-7 9,6 17,28 20,65 87,180 167,287 113,151 123,174 116,258 -5,62 -3,75 22,127 40,82 140,178 243,233 90,47 167,121 211,201 l 24,44 -75,-71 c -49,-46 -121,-98 -208,-150 -73,-43 -161,-105 -196,-137 -35,-32 -64,-55 -64,-49 0,17 62,97 139,177 42,44 96,103 119,130 l 42,50 -10,-35 c -5,-19 -24,-55 -40,-79 l -31,-43 32,23 c 51,36 159,139 202,194 35,43 39,46 33,22 -6,-27 -6,-28 13,-15 31,22 80,87 111,149 16,30 45,75 66,100 l 37,44 -6,-35 c -14,-77 45,63 63,148 l 17,84 21,-50 c 12,-28 22,-63 22,-78 0,-18 3,-25 10,-18 5,5 14,68 19,140 10,131 5,207 -19,269 l -11,30 26,-25 26,-24 -26,67 c -33,88 -77,174 -109,212 l -26,30 14,-35 c 7,-19 16,-48 20,-64 7,-27 4,-25 -26,15 -34,44 -49,54 -168,107 -36,16 -108,63 -160,105 -136,109 -141,111 -277,104 -62,-4 -121,-11 -132,-16 -27,-15 -93,-111 -101,-146 l -6,-30 -18,33 c -10,19 -16,50 -15,70 1,21 -5,55 -15,77 -37,80 2,163 96,209 54,26 39,37 -17,12 z m 162,-253 c 7,-20 -33,-52 -57,-46 -26,7 -37,30 -21,46 8,8 11,7 11,-6 0,-11 8,-17 21,-17 17,0 20,5 16,21 -4,15 -1,19 10,17 9,-2 18,-8 20,-15 z m -737,-5 c 0,-5 -4,-6 -10,-3 -5,3 -10,2 -10,-4 0,-20 22,-23 41,-5 18,16 19,16 19,-3 0,-34 -47,-44 -74,-17 -24,23 -19,42 9,42 14,0 25,-5 25,-10 z m 935,-8 30,-20 h -36 c -36,0 -36,0 -42,-49 -11,-94 -51,-148 -133,-181 -30,-12 -54,-25 -54,-29 0,-3 24,-7 54,-9 49,-3 58,0 92,30 45,40 84,119 84,171 0,35 2,38 23,32 12,-4 39,-24 59,-45 30,-31 44,-60 74,-156 51,-164 54,-169 126,-204 34,-16 63,-28 65,-26 2,2 -42,67 -87,129 -14,19 -14,20 10,7 14,-7 39,-23 57,-36 17,-13 35,-24 39,-24 15,0 -72,81 -112,105 -23,13 -49,37 -59,52 -18,27 -18,28 1,12 10,-9 35,-25 54,-34 32,-16 34,-16 21,-1 -45,54 56,14 125,-51 45,-40 47,-44 22,-38 -39,8 -34,-6 10,-33 71,-45 132,-150 132,-230 v -36 l -32,50 -33,49 -5,-44 -5,-45 -29,42 c -16,23 -30,42 -31,42 -2,0 3,-17 11,-37 16,-45 18,-139 4,-148 -5,-3 -10,2 -10,12 -1,28 -45,123 -74,159 -32,41 -70,62 -134,73 -54,11 -61,5 -57,-46 2,-28 -1,-33 -20,-33 -12,0 -24,3 -28,6 -3,3 10,34 29,68 42,77 44,93 4,39 -43,-58 -74,-76 -136,-76 -77,0 -104,21 -104,79 v 46 l -67,-133 -68,-133 -8,65 c -16,127 -35,206 -77,317 -32,86 -41,120 -36,146 10,52 40,83 99,100 34,10 64,28 87,51 30,31 40,35 84,35 34,0 61,-7 81,-20 z m 236,-549 c 83,-52 161,-203 146,-283 -3,-22 -4,-22 -11,-3 -41,108 -86,175 -60,89 8,-26 14,-62 14,-80 0,-35 -56,-224 -67,-224 -3,0 -3,39 0,88 l 6,87 -15,-79 c -8,-44 -17,-82 -19,-85 -3,-2 -5,18 -5,46 0,61 -20,164 -30,158 -5,-3 -8,-31 -8,-64 0,-35 -7,-71 -17,-91 -25,-49 -86,-142 -90,-138 -2,2 0,20 4,40 5,20 7,39 4,41 -2,3 -26,-18 -53,-47 -46,-48 -163,-125 -144,-95 4,8 20,32 35,54 63,94 88,220 55,283 -27,53 -52,66 -139,73 l -82,7 82,-2 c 79,-1 83,-2 117,-35 43,-42 66,-88 66,-133 0,-25 3,-29 10,-18 15,23 12,97 -5,130 -20,39 -76,80 -119,87 -20,3 -33,9 -30,14 3,5 1,9 -5,9 -5,0 -2,18 7,41 l 17,40 165,-4 c 91,-2 176,-8 190,-13 l 25,-8 -29,40 c -16,21 -43,54 -59,72 -39,41 -18,43 44,3 z m -1866,-63 c -37,-40 -81,-93 -96,-118 -35,-55 -37,-48 -6,22 40,88 104,154 165,167 2,1 -26,-32 -63,-71 z m 215,46 c 0,-3 -11,-22 -25,-42 -14,-20 -25,-39 -25,-42 0,-3 51,-2 112,1 96,5 193,23 251,45 10,3 24,-17 45,-66 18,-38 32,-72 32,-74 0,-3 -30,11 -66,30 -54,28 -76,34 -128,34 -100,0 -150,-24 -198,-95 -17,-25 -15,-24 13,7 30,32 67,58 83,58 2,0 -2,-14 -11,-31 -8,-16 -13,-32 -11,-35 3,-2 23,2 46,10 22,8 61,18 87,21 l 46,7 -25,-37 c -14,-21 -23,-41 -20,-46 3,-5 0,-9 -5,-9 -6,0 -11,-7 -11,-15 0,-9 13,-1 33,20 31,35 92,61 102,45 3,-4 -6,-11 -20,-14 -26,-7 -69,-70 -81,-121 -7,-28 -5,-27 27,15 45,57 81,77 154,84 54,5 56,4 17,-4 -56,-12 -103,-42 -146,-92 -48,-55 -85,-168 -56,-168 6,0 10,6 10,13 0,21 66,150 94,182 l 25,30 1,-42 c 0,-26 5,-43 12,-43 6,0 1,-12 -13,-26 l -24,-27 26,17 26,16 1,-37 c 4,-81 43,-162 108,-223 l 37,-35 -32,48 c -47,69 -80,146 -87,203 l -7,49 42,-79 c 58,-109 119,-201 189,-288 105,-129 149,-248 153,-418 l 1,-65 13,50 c 16,62 18,165 5,234 -15,80 -54,149 -136,241 -42,47 -87,108 -101,135 l -24,50 38,-45 c 21,-24 66,-76 101,-115 77,-86 121,-172 135,-264 6,-39 15,-71 19,-71 9,0 77,134 103,203 10,26 20,45 22,43 6,-5 -67,-274 -112,-416 -30,-94 -70,-288 -62,-297 2,-1 16,42 31,97 27,96 40,122 115,226 19,27 50,78 68,114 31,63 32,64 33,30 0,-48 -34,-185 -60,-240 -11,-25 -18,-37 -16,-28 3,9 7,34 10,55 6,36 5,36 -4,8 -6,-16 -12,-46 -14,-65 -6,-48 -10,-58 -89,-205 -39,-71 -80,-155 -91,-186 l -21,-56 -1,81 c 0,106 -22,175 -85,271 -28,43 -69,116 -91,162 -28,59 -59,105 -105,154 -36,38 -67,68 -69,66 -2,-1 1,-20 6,-41 5,-21 5,-35 1,-30 -110,129 -139,171 -156,234 -7,24 -7,24 26,-6 19,-18 66,-51 104,-74 139,-84 225,-177 291,-315 41,-84 45,-57 8,53 -49,147 -129,249 -279,354 -85,60 -167,138 -209,202 -33,50 -33,40 0,-27 l 26,-52 -32,30 c -42,40 -68,84 -91,153 l -19,57 5,-91 c 2,-51 9,-104 15,-119 6,-15 9,-30 7,-32 -7,-6 -67,168 -68,196 0,23 -1,24 -9,6 -5,-11 -9,-40 -10,-65 l -2,-45 -14,55 c -17,64 -12,165 11,230 8,23 15,45 15,48 0,4 -23,-16 -51,-43 l -51,-50 6,69 c 4,38 13,84 21,104 26,60 -10,19 -52,-61 -37,-71 -57,-79 -29,-13 21,49 11,45 -24,-11 -17,-26 -30,-42 -30,-35 0,23 41,119 70,165 33,52 32,53 -33,33 l -47,-14 21,29 c 38,54 179,143 179,113 z m 901,-114 c 10,-6 19,-17 19,-25 0,-25 -36,-35 -130,-35 -90,0 -91,0 -84,23 3,12 11,28 16,35 13,15 151,17 179,2 z m 323,-17 c -8,-10 -24,-29 -34,-43 -19,-24 -19,-25 -20,-3 0,12 12,31 26,42 32,26 50,28 28,4 z m -479,-142 c -3,-6 -14,-10 -23,-10 -15,1 -15,2 1,6 9,2 17,9 17,15 0,6 3,9 6,5 3,-3 3,-10 -1,-16 z m 150,-10 c -6,-5 -25,10 -25,20 0,5 6,4 14,-3 8,-7 12,-15 11,-17 z m 51,14 c -11,-8 -24,-15 -30,-15 -5,0 -1,7 10,15 10,8 24,14 29,14 6,0 1,-6 -9,-14 z m -526,-100 c -7,-8 -18,-15 -24,-15 -6,0 -2,7 8,15 25,19 32,19 16,0 z m 493,-102 c -69,-42 -148,-40 -202,5 -21,16 -17,17 109,18 h 131 z m 295,-130 c -3,-51 -9,-69 -34,-99 -48,-60 -56,-51 -22,23 21,44 34,88 36,128 4,51 6,56 14,35 5,-14 8,-53 6,-87 z m -321,-172 c -3,-47 -15,-113 -26,-146 -19,-57 -20,-58 -20,-23 -1,38 -43,167 -67,203 -7,11 -20,38 -30,60 l -16,40 22,-20 c 29,-27 59,-85 85,-170 l 22,-70 8,49 c 4,27 5,87 2,135 -5,82 -4,84 10,57 12,-23 14,-49 10,-115 z m -606,-271 c 19,-20 57,-55 84,-79 l 50,-43 -44,22 c -59,30 -136,103 -161,154 -29,62 -25,77 8,25 16,-24 44,-60 63,-79 z m 781,-237 c -34,-94 -60,-136 -142,-234 -33,-40 -70,-84 -81,-98 -31,-39 -14,-9 76,134 45,72 101,165 125,207 24,43 45,76 47,74 2,-2 -9,-39 -25,-83 z"
       id="path5-7"
       style="fill:#173258;fill-opacity:1" /><path
       d="m 3243,3381 c -12,-15 -43,-38 -68,-50 -55,-26 -55,-35 0,-20 42,12 95,58 95,83 0,22 -3,20 -27,-13 z"
       id="path6-5"
       style="fill:#173258;fill-opacity:1" /><path
       d="m 3408,3318 c -2,-6 2,-34 9,-62 7,-28 13,-66 13,-86 0,-19 5,-42 10,-50 16,-25 12,136 -4,175 -16,37 -22,42 -28,23 z"
       id="path7-9"
       style="fill:#173258;fill-opacity:1" /><path
       d="m 3253,3085 c -34,-14 -47,-42 -15,-32 70,22 93,34 77,41 -22,8 -24,8 -62,-9 z"
       id="path8-2"
       style="fill:#173258;fill-opacity:1" /><path
       d="m 3296,2737 c -25,-11 -17,-12 65,-12 84,0 98,-3 129,-24 31,-22 33,-22 17,-4 -43,49 -144,68 -211,40 z"
       id="path9-2"
       style="fill:#173258;fill-opacity:1" /><path
       d="m 2087,2557 c -15,-40 -7,-122 18,-172 14,-27 22,-39 18,-25 -3,14 -11,68 -17,120 -7,60 -14,88 -19,77 z"
       id="path10-8"
       style="fill:#173258;fill-opacity:1" /><path
       d="m 2227,2377 c -23,-61 16,-133 121,-223 230,-198 311,-322 348,-537 9,-50 18,-94 20,-96 4,-5 7,81 4,139 -2,53 -28,138 -63,205 -23,46 -71,100 -203,230 -167,165 -200,207 -214,270 -5,25 -7,27 -13,12 z"
       id="path11-9"
       style="fill:#173258;fill-opacity:1" /><path
       d="m 3126,2203 c -6,-14 -5,-15 5,-6 7,7 10,15 7,18 -3,3 -9,-2 -12,-12 z"
       id="path12-7"
       style="fill:#173258;fill-opacity:1" /><path
       d="m 2388,3663 c 7,-3 16,-2 19,1 4,3 -2,6 -13,5 -11,0 -14,-3 -6,-6 z"
       id="path13-3"
       style="fill:#173258;fill-opacity:1" /><path
       d="m 3138,3653 c 7,-3 16,-2 19,1 4,3 -2,6 -13,5 -11,0 -14,-3 -6,-6 z"
       id="path14-6"
       style="fill:#173258;fill-opacity:1" /><path
       d="m 2188,3616 c -76,-27 -142,-69 -219,-141 -53,-48 -31,-40 41,15 60,46 122,83 200,117 87,38 75,43 -22,9 z"
       id="path15-1"
       style="fill:#173258;fill-opacity:1" /><path
       d="m 3025,3609 c -26,-50 0,-153 27,-105 11,20 32,22 25,2 -4,-9 7,-6 30,9 19,14 51,27 72,31 20,4 43,10 51,15 27,15 -48,10 -87,-6 -32,-13 -34,-13 -23,0 17,21 7,29 -19,16 -18,-10 -21,-7 -32,29 -7,22 -16,40 -20,40 -5,0 -16,-14 -24,-31 z"
       id="path16-2"
       style="fill:#173258;fill-opacity:1" /><path
       d="m 3330,3607 c 36,-19 96,-53 134,-76 37,-23 70,-40 72,-38 8,8 -102,86 -156,111 -89,40 -125,42 -50,3 z"
       id="path17-9"
       style="fill:#173258;fill-opacity:1" /><path
       d="m 2460,3605 c -7,-8 -24,-15 -39,-15 l -26,-1 28,-15 c 15,-8 27,-16 27,-19 0,-2 -26,-2 -57,1 l -58,4 55,-15 c 30,-9 65,-25 77,-37 19,-17 25,-19 38,-8 21,17 19,49 -5,88 -23,37 -23,37 -40,17 z"
       id="path18-3"
       style="fill:#173258;fill-opacity:1" /><path
       d="m 2152,3540 c -98,-47 -128,-68 -79,-55 22,6 22,6 2,-11 -11,-9 -63,-37 -115,-62 -62,-30 -89,-47 -77,-50 17,-3 16,-7 -9,-33 -83,-87 88,22 291,186 28,22 61,48 75,57 43,29 17,20 -88,-32 z"
       id="path19-1"
       style="fill:#173258;fill-opacity:1" /><path
       d="m 3460,3479 c 119,-104 238,-189 265,-189 6,0 -63,61 -126,112 -23,18 -27,26 -14,22 26,-8 -101,65 -134,77 -23,8 -22,6 9,-22 z"
       id="path20-9"
       style="fill:#173258;fill-opacity:1" /><path
       d="m 3645,3395 c 24,-15 54,-25 75,-24 l 35,1 -50,24 c -27,13 -61,24 -75,24 -23,-1 -21,-3 15,-25 z"
       id="path21-4"
       style="fill:#173258;fill-opacity:1" /><path
       d="m 2176,3402 c -11,-18 -36,-179 -35,-231 0,-31 3,-49 6,-41 3,8 15,39 26,69 l 20,54 24,-63 c 28,-76 68,-131 88,-124 8,3 29,-1 46,-10 21,-11 36,-13 42,-7 15,15 -9,38 -45,46 -21,5 -38,20 -58,52 -38,59 -76,157 -85,216 -7,44 -17,58 -29,39 z"
       id="path22-7"
       style="fill:#173258;fill-opacity:1" /><path
       d="m 2310,3374 c 0,-21 56,-63 99,-74 59,-16 63,-6 4,14 -26,9 -60,28 -75,43 -15,15 -28,22 -28,17 z"
       id="path23"
       style="fill:#173258;fill-opacity:1" /><path
       d="m 2784,3060 c 0,-69 1,-97 3,-62 2,34 2,90 0,125 -2,34 -3,6 -3,-63 z"
       id="path24"
       style="fill:#173258;fill-opacity:1" /><path
       d="m 2410,3166 c 0,-2 8,-10 18,-17 15,-13 16,-12 3,4 -13,16 -21,21 -21,13 z"
       id="path25-8"
       style="fill:#173258;fill-opacity:1" /><path
       d="m 2604,3110 c 3,-14 8,-74 12,-135 6,-97 8,-105 16,-70 10,44 -5,185 -22,213 -8,14 -9,12 -6,-8 z"
       id="path26"
       style="fill:#173258;fill-opacity:1" /><path
       d="m 2941,3064 c -6,-22 -13,-59 -16,-84 -3,-29 2,-17 15,34 11,43 18,81 16,84 -3,2 -9,-13 -15,-34 z"
       id="path27"
       style="fill:#173258;fill-opacity:1" /><path
       d="m 4125,2915 c 70,-93 136,-200 220,-360 75,-141 101,-181 155,-235 36,-36 85,-75 110,-88 l 45,-23 -35,28 c -116,93 -130,112 -222,302 -49,101 -103,205 -121,230 -39,58 -112,136 -152,164 l -30,21 z"
       id="path28"
       style="fill:#173258;fill-opacity:1" /><path
       d="m 4057,2850 c 11,-62 7,-148 -7,-165 -8,-10 -9,-15 -2,-15 6,0 16,-26 22,-57 12,-55 13,-56 26,-32 20,37 17,104 -11,209 -28,103 -40,130 -28,60 z"
       id="path29"
       style="fill:#173258;fill-opacity:1" /><path
       d="m 3025,2660 c -16,-7 -17,-9 -3,-9 9,-1 20,4 23,9 7,11 7,11 -20,0 z"
       id="path30"
       style="fill:#173258;fill-opacity:1" /><path
       d="m 4186,2655 c 25,-79 12,-235 -26,-311 l -19,-39 44,48 c 33,36 46,59 51,94 8,52 -7,129 -37,188 -10,22 -16,31 -13,20 z"
       id="path31"
       style="fill:#173258;fill-opacity:1" /><path
       d="m 3043,2611 -22,-18 h 27 c 15,0 21,2 14,4 -10,4 -10,8 -1,19 16,19 8,17 -18,-5 z"
       id="path32"
       style="fill:#173258;fill-opacity:1" /><path
       d="m 4117,2548 c -9,-29 -15,-54 -13,-56 2,-2 12,20 21,48 9,28 15,53 13,55 -2,3 -12,-19 -21,-47 z"
       id="path33"
       style="fill:#173258;fill-opacity:1" /><path
       d="m 3010,2550 c -8,-5 -10,-10 -5,-10 6,0 17,5 25,10 8,5 11,10 5,10 -5,0 -17,-5 -25,-10 z"
       id="path34"
       style="fill:#173258;fill-opacity:1" /><path
       d="m 4026,2519 c -2,-8 -9,-36 -16,-63 -10,-46 -34,-96 -84,-179 -37,-61 -46,-66 -46,-27 0,76 -17,60 -50,-47 -31,-101 -98,-267 -86,-213 3,14 8,57 11,95 l 5,70 -15,-55 c -15,-55 -91,-217 -119,-255 -10,-14 -8,3 9,60 12,44 25,100 29,125 l 6,45 -19,-51 c -10,-28 -44,-104 -75,-170 -45,-93 -68,-129 -108,-166 -57,-54 -75,-61 -54,-20 25,48 46,103 37,98 -4,-3 -41,-54 -82,-113 -48,-70 -120,-154 -207,-242 -127,-127 -136,-139 -187,-245 -51,-104 -175,-419 -175,-441 0,-5 16,24 34,65 115,256 272,445 442,532 49,25 106,51 126,57 46,15 98,72 139,153 40,80 95,161 177,263 75,92 133,207 173,338 15,51 28,80 28,65 1,-14 -8,-54 -18,-89 l -20,-62 45,44 c 58,57 111,165 123,249 11,84 -7,229 -23,179 z"
       id="path35"
       style="fill:#173258;fill-opacity:1" /><path
       d="m 4294,2490 c 38,-143 48,-213 48,-330 -1,-81 -6,-142 -16,-175 l -16,-50 6,66 c 6,75 -10,103 -19,35 -4,-24 -25,-86 -47,-138 -23,-51 -50,-117 -61,-147 -18,-52 -37,-181 -26,-181 3,0 19,37 35,83 16,45 57,135 90,199 109,213 118,338 41,578 -21,64 -49,112 -35,60 z"
       id="path36"
       style="fill:#173258;fill-opacity:1" /><path
       d="m 4222,2347 c -12,-27 -20,-52 -18,-54 6,-6 48,85 44,96 -1,5 -13,-14 -26,-42 z"
       id="path37"
       style="fill:#173258;fill-opacity:1" /><path
       d="m 4092,2152 c -48,-125 -107,-207 -256,-355 -159,-158 -192,-209 -201,-312 l -5,-60 18,50 c 38,102 68,143 201,280 117,120 143,153 183,230 47,92 94,212 87,220 -3,2 -14,-22 -27,-53 z"
       id="path38"
       style="fill:#173258;fill-opacity:1" /><path
       d="m 3272,1758 c -26,-43 -48,-109 -62,-188 -6,-36 -14,-74 -17,-85 -5,-17 -4,-18 10,-7 25,21 54,109 62,187 4,39 13,82 21,98 20,38 10,34 -14,-5 z"
       id="path39"
       style="fill:#173258;fill-opacity:1" /><path
       d="M 3851,1562 C 3795,1447 3732,1370 3501,1140 3371,1011 3202,850 3125,784 2964,644 2892,571 2829,480 c -63,-89 -69,-105 -18,-45 128,151 305,291 459,362 52,24 101,47 109,52 8,4 19,25 26,46 29,99 103,208 236,352 50,54 111,125 135,159 44,61 110,191 102,199 -2,3 -15,-17 -27,-43 z"
       id="path40"
       style="fill:#173258;fill-opacity:1" /><path
       d="m 2016,1290 c 23,-122 76,-201 264,-385 153,-150 158,-148 17,9 -136,151 -181,211 -238,319 -36,69 -47,83 -43,57 z"
       id="path41"
       style="fill:#173258;fill-opacity:1" /><path
       d="m 2254,1157 c 6,-45 37,-96 162,-267 50,-69 119,-169 154,-222 34,-54 64,-98 66,-98 2,0 -3,17 -12,38 -9,20 -20,48 -25,62 -27,67 -144,238 -247,360 -30,36 -66,87 -79,115 l -25,50 z"
       id="path42"
       style="fill:#173258;fill-opacity:1" /></g><rect
     style="opacity:1;fill:#173258;fill-opacity:1;stroke:#000004;stroke-width:0.75;filter:url(#filter76)"
     id="rect52"
     width="510.42285"
     height="35.573898"
     x="0.48303875"
     y="1.458765" /><rect
     style="opacity:1;fill:#173258;fill-opacity:1;stroke:#000004;stroke-width:0.75;filter:url(#filter77)"
     id="rect53"
     width="31.001915"
     height="478.41431"
     x="479.54346"
     y="34.112782" /><rect
     style="opacity:1;fill:#173258;fill-opacity:1;stroke:#000004;stroke-width:0.75;filter:url(#filter79)"
     id="rect54"
     width="34.026657"
     height="478.39624"
     x="0.6469503"
     y="33.200428" /><rect
     style="opacity:1;fill:#173258;fill-opacity:1;stroke:#000004;stroke-width:1.45441;filter:url(#filter78)"
     id="rect55"
     width="458.23505"
     height="32.014359"
     x="27.808096"
     y="479.91983" /></svg>
